<svg xmlns="http://www.w3.org/2000/svg" xmlns:xlink="http://www.w3.org/1999/xlink"><symbol id="burger-icon" viewBox="0 0 76 68">
  <path d="M71.7113 45.3324H4.28871C1.89501 45.3324 0 47.3034 0 49.57V53.0192C0 55.2858 1.89501 57.1582 4.28871 57.1582H5.28609V58.1437C5.28609 63.5639 9.77428 67.9 15.1601 67.9H60.8399C66.3255 67.9 70.7139 63.4653 70.7139 58.1437V57.1582H71.7113C74.0053 57.1582 76 55.2858 76 52.9206V49.4714C76 47.3034 74.105 45.3324 71.7113 45.3324ZM67.8215 58.1437C67.8215 61.8886 64.7297 64.9436 60.9396 64.9436H15.0604C11.2703 64.9436 8.17848 61.8886 8.17848 58.1437V57.1582H67.8215V58.1437ZM73.0079 52.9206C73.0079 53.6105 72.4095 54.2018 71.7113 54.2018H4.28871C3.59055 54.2018 2.99213 53.6105 2.99213 52.9206V49.4714C2.99213 48.8801 3.59055 48.2889 4.28871 48.2889H71.811C72.5092 48.2889 73.1076 48.8801 73.1076 49.57V52.9206H73.0079Z" fill="#81B3D2"/>
  <path d="M16.1575 37.3496L21.5434 41.2915L27.0289 37.3496L32.5145 41.2915L38 37.3496L43.3859 41.2915L48.8714 37.3496L54.357 41.2915L59.8426 37.3496L65.3281 41.2915L71.6116 36.6597L69.9161 34.2946L65.3281 37.5467L59.8426 33.6047L54.357 37.5467L48.8714 33.6047L43.3859 37.5467L38 33.6047L32.5145 37.5467L27.0289 33.6047L21.5434 37.5467L16.1575 33.6047L10.672 37.5467L6.08403 34.2946L4.28876 36.6597L10.672 41.2915L16.1575 37.3496Z" fill="#81B3D2"/>
  <path d="M70.7138 30.6486C70.7138 30.0573 70.8136 28.0864 70.7138 27.6922C70.0157 12.3186 55.6535 0 37.9999 0C20.3464 0 5.88444 12.3186 5.18628 27.6922C5.18628 28.0864 5.18628 30.0573 5.18628 30.6486H70.7138ZM37.9999 2.95646C53.9579 2.95646 67.1233 13.9939 67.7217 27.6922H8.17841C8.87657 13.9939 22.0419 2.95646 37.9999 2.95646Z" fill="#81B3D2"/>
  <path d="M38 16.7532C39.1017 16.7532 39.9948 15.8708 39.9948 14.7823C39.9948 13.6937 39.1017 12.8113 38 12.8113C36.8983 12.8113 36.0052 13.6937 36.0052 14.7823C36.0052 15.8708 36.8983 16.7532 38 16.7532Z" fill="#81B3D2"/>
  <path d="M30.021 11.924C31.1227 11.924 32.0157 11.0416 32.0157 9.95303C32.0157 8.86449 31.1227 7.98206 30.021 7.98206C28.9193 7.98206 28.0262 8.86449 28.0262 9.95303C28.0262 11.0416 28.9193 11.924 30.021 11.924Z" fill="#81B3D2"/>
  <path d="M45.979 11.924C47.0807 11.924 47.9738 11.0416 47.9738 9.95303C47.9738 8.86449 47.0807 7.98206 45.979 7.98206C44.8773 7.98206 43.9843 8.86449 43.9843 9.95303C43.9843 11.0416 44.8773 11.924 45.979 11.924Z" fill="#81B3D2"/>
</symbol><symbol id="burger-menu-icon" viewBox="0 0 23 22">
    <path d="M22.9 5.72205e-06H0V4.00001H22.9V5.72205e-06Z" fill="#81B3D2"/>
    <path d="M22.9 9.00001H0V13H22.9V9.00001Z" fill="#81B3D2"/>
    <path d="M22.9 18H0V22H22.9V18Z" fill="#81B3D2"/>
</symbol><symbol id="check-icon" viewBox="0 0 24 17">
  <path d="M22.925 1.325L21.825 0.225C21.525 -0.075 20.925 -0.075 20.625 0.225L8.725 12.125L2.525 5.925C2.225 5.625 1.625 5.625 1.325 5.925L0.225 7.025C-0.075 7.325 -0.075 7.925 0.225 8.225L8.025 16.025C8.225 16.225 8.425 16.225 8.625 16.225C8.825 16.225 9.025 16.125 9.225 16.025L22.725 2.525C23.225 2.225 23.225 1.725 22.925 1.325Z"/>
</symbol><symbol id="close-icon" viewBox="0 0 23 23">
  <path d="M22.2 2.8L19.4 0L11.1 8.3L2.8 0L0 2.8L8.3 11.1L0 19.4L2.8 22.2L11.1 13.9L19.4 22.2L22.2 19.4L13.9 11.1L22.2 2.8Z" fill="white"/>
</symbol><symbol id="email-icon" viewBox="0 0 58 58">
  <rect width="58" height="58" fill="#E6E6E6"/>
  <path d="M29 31C28.7 31 28.5 30.9 28 30.7L21 27V34C21 34.5 21.5 35 22 35H36C36.5 35 37 34.5 37 34V27L30 30.7C29.5 30.9 29.3 31 29 31ZM36 23H22C21.5 23 21 23.5 21 24V24.8L29 29L37 24.8V24C37 23.5 36.5 23 36 23Z"/>
</symbol><symbol id="facebook-icon" viewBox="0 0 9 19">
  <path d="M6.3 3.4C7.1 3.4 7.9 3.4 8.7 3.4C8.7 2.3 8.7 1.2 8.7 0C7.7 0 6.8 0 5.8 0C2.7 0.2 1.5 2.4 1.9 6.1H0V9.6H2C2 12.7 2 15.8 2 18.9C3.3 18.9 4.6 18.9 5.8 18.9C5.8 15.8 5.8 12.7 5.8 9.6H8.7V6.1H5.8C5.8 5.1 5.8 3.7 6.3 3.4Z" fill="white"/>
</symbol><symbol id="favicon" viewBox="0 0 32 32">
<rect width="32" height="32" fill="#81B3D3"/>
<path d="M10.7231 19.7434C10.7457 19.7656 10.7571 19.7875 10.7571 19.8096C10.78 19.8096 10.8025 19.8204 10.8251 19.8426C11.4378 20.5021 12.1302 21.1178 12.9018 21.6896C13.6734 22.2392 14.5587 22.536 15.5572 22.58C15.5801 22.58 15.6026 22.5914 15.6252 22.6132H15.7275C15.7501 22.6132 15.773 22.624 15.7955 22.6462H16.1699C16.2836 22.624 16.3856 22.6022 16.4765 22.58C16.8403 22.5138 17.1873 22.3794 17.4979 22.1844C17.8379 21.9864 18.0991 21.7444 18.2806 21.4587L18.3489 21.3266L18.4169 21.1948C18.4623 21.0409 18.4963 20.898 18.5192 20.7659C18.5418 20.6341 18.5532 20.5132 18.5532 20.4032C18.5532 19.8096 18.2806 19.3149 17.7362 18.9189C17.2286 18.5092 16.653 18.1857 16.0339 17.9623C15.801 17.8791 15.562 17.813 15.3189 17.7646C15.1054 17.7021 14.8897 17.647 14.6722 17.5996H14.6042C14.5813 17.5778 14.5587 17.5667 14.5361 17.5667C13.4323 17.3061 12.376 16.8834 11.4041 16.3133C10.4279 15.7197 9.75863 14.873 9.39541 13.7735C9.32428 13.5435 9.25617 13.3125 9.19108 13.0808C9.14449 12.8298 9.11044 12.5767 9.08906 12.3224C9.06815 12.247 9.05673 12.1694 9.05506 12.0912V11.2997C9.07763 11.1239 9.11164 10.948 9.15708 10.772C9.22755 10.3228 9.3415 9.8811 9.49743 9.45266C9.65631 9.01299 9.86064 8.61706 10.1101 8.26543C10.8365 7.0998 11.767 6.26419 12.9018 5.75863C14.0595 5.25278 15.2623 5 16.5105 5C16.8057 5 17.1006 5.02187 17.3958 5.06589C17.7146 5.08796 18.0325 5.12093 18.3489 5.16473C19.1768 5.29965 19.9871 5.52087 20.7659 5.82452C21.583 6.13241 22.332 6.49511 23.013 6.91291L21.1406 10.9699C20.5295 10.5313 19.8802 10.145 19.1999 9.81564C18.5192 9.48561 17.7816 9.32087 16.9872 9.32087H16.7146C16.1927 9.38676 15.7049 9.61768 15.2508 10.0133C14.797 10.3871 14.5701 10.7941 14.5701 11.2338V11.4317C14.5927 11.4976 14.6267 11.5635 14.6722 11.6297C14.7176 11.7837 14.797 11.9265 14.9105 12.0586C15.0239 12.1904 15.1488 12.3114 15.2849 12.4213C15.5346 12.6193 15.8975 12.8061 16.3745 12.982C16.8509 13.1359 17.3504 13.2898 17.8725 13.4438C18.3034 13.5537 18.7232 13.6636 19.1319 13.7735C19.5406 13.8616 19.8809 13.9496 20.1532 14.0377C21.4241 14.4773 22.3774 15.2138 23.013 16.2474C23.6482 17.2588 23.9774 18.3364 24 19.4796V19.6446C24 19.7767 23.9889 19.9088 23.966 20.0405V20.4032C23.83 21.5467 23.4442 22.6351 22.8086 23.6687C22.1959 24.7022 21.3675 25.4938 20.3236 26.0437C19.9361 26.2202 19.5382 26.3743 19.1319 26.5052C18.7262 26.6146 18.3176 26.7136 17.9065 26.8023C17.5694 26.8678 17.2282 26.9118 16.8852 26.9341C16.5579 26.9772 16.2281 26.9992 15.8978 27H15.5232C14.1615 26.9563 12.8227 26.6702 11.5061 26.1422C10.1899 25.5927 9.02105 24.867 8 23.9655L10.7231 19.7434Z" fill="white"/>
</symbol><symbol id="fullscreen-icon" viewBox="0 0 20 20">
  <path d="M0 0V3V6H3V3H6V0H3H0Z"/>
  <path d="M3 14H0V17V20H3H6V17H3V14Z"/>
  <path d="M17 0H14V3H17V6H20V3V0H17Z"/>
  <path d="M17 17H14V20H17H20V17V14H17V17Z"/>
</symbol><symbol id="gift-icon" viewBox="0 0 64 75">
  <path d="M61.1556 22.1167H61.054H36.3683C50.1841 15.3189 51.3016 11.0202 50.7937 8.62098C49.6762 4.72221 45.1048 1.72316 40.8381 3.32266C35.2508 5.42199 33.727 13.6194 32.2032 19.5175C30.273 13.5194 28.4444 5.92183 24.0762 2.02307C22.8571 0.923414 21.0286 -0.176239 18.2857 0.0236982C14.2222 0.423572 8.43175 5.32202 10.8698 10.8203C13.1048 16.1186 20.5206 19.5175 25.4984 22.2167H2.84444C1.21905 22.2167 0 23.5163 0 25.0158V36.2123C0 37.8118 1.32063 39.0114 2.84444 39.0114H3.14921V75H61.054V39.0114H61.1556C62.781 39.0114 64 37.7118 64 36.2123V25.0158C64 23.4163 62.6794 22.1167 61.1556 22.1167ZM42.4635 5.82187C44.5968 5.52196 47.4413 7.12146 47.746 9.02085C48.1524 11.72 44.3937 14.2192 42.6667 15.3189C40.127 17.0183 37.6889 17.918 35.3524 19.3176C36.1651 15.6188 37.8921 6.42168 42.4635 5.82187ZM19.5048 15.6188C17.2698 14.1192 13.0032 11.2202 13.1048 7.9212C13.2063 4.32234 18.8952 1.42326 21.9429 4.1224C25.8032 7.42136 27.6317 15.1189 29.054 20.5172C25.8032 18.9177 22.7556 17.7181 19.5048 15.6188ZM25.4984 72.0009H6.09524V39.0114H25.4984V72.0009ZM25.4984 36.0123H3.04762V25.1158H25.4984V36.0123ZM35.6571 72.0009H28.4444V25.1158H35.6571V72.0009ZM58.0064 72.0009H38.7048V39.0114H58.1079V72.0009H58.0064ZM60.9524 36.0123H38.7048V25.1158H60.9524V36.0123Z" fill="#81B3D2"/>
</symbol><symbol id="house-icon" viewBox="0 0 75 72">
  <path d="M29.6185 64.9389H45.6827V41.1709H29.6185V64.9389ZM42.7711 62.0549H32.5301V44.0549H42.6707V62.0549H42.7711Z" fill="#81B3D2"/>
  <path d="M72.8916 39.1823L75 37.0939L65.0602 27.2486V0.39779H51.2048V13.5249L37.4498 0L0 37.1934L2.10843 39.2818L9.93976 31.5249V69.116H6.0241V72H70.1807V69.116H65.0602V31.4254L72.8916 39.1823ZM54.1165 3.38122H62.0482V24.3646L54.1165 16.5083V3.38122ZM62.1486 69.0166H12.9518V28.5414L37.4498 4.1768L62.0482 28.5414V69.0166H62.1486Z" fill="#81B3D2"/>
  <path d="M29.9197 27.0491C29.9197 31.3253 33.4338 34.806 37.6507 34.806C41.9679 34.806 45.482 31.3253 45.482 27.0491C45.482 22.7728 41.9679 19.3916 37.6507 19.3916C33.3334 19.3916 29.9197 22.7728 29.9197 27.0491ZM37.6507 22.0767C40.3615 22.0767 42.6707 24.2645 42.6707 27.0491C42.6707 29.7341 40.4619 32.0214 37.6507 32.0214C34.9398 32.0214 32.6306 29.8336 32.6306 27.0491C32.6306 24.364 34.9398 22.0767 37.6507 22.0767Z" fill="#81B3D2"/>
  <path d="M19.9799 41.1709H16.9679V45.0493H19.9799V41.1709Z" fill="#81B3D2"/>
  <path d="M25.9036 41.1709H22.8915V45.0493H25.9036V41.1709Z" fill="#81B3D2"/>
  <path d="M19.9799 47.1387H16.9679V51.0171H19.9799V47.1387Z" fill="#81B3D2"/>
  <path d="M25.9036 47.1387H22.8915V51.0171H25.9036V47.1387Z" fill="#81B3D2"/>
  <path d="M52.008 41.1709H48.996V45.0493H52.008V41.1709Z" fill="#81B3D2"/>
  <path d="M58.0321 41.1709H55.0201V45.0493H58.0321V41.1709Z" fill="#81B3D2"/>
  <path d="M52.008 47.1387H48.996V51.0171H52.008V47.1387Z" fill="#81B3D2"/>
  <path d="M58.0321 47.1387H55.0201V51.0171H58.0321V47.1387Z" fill="#81B3D2"/>
</symbol><symbol id="htmlacademy-icon" viewBox="0 0 27 35">
  <path d="M13.6 0H13.5L0 1.4V26.1L13.5 34.1L26.9 26.1V1.4L13.6 0ZM25 12.1L13.5 5.3V5.2H13.4L13.3 5.1V5.2L1.9 12.1V3.1L13.4 1.9L25 3.1V12.1ZM13.4 6.8L24.9 13.5L20.4 16.1L13.3 11.9V13.3L19.2 16.8L18.3 17.3L13.3 14.3V15.7L17.1 18L16.3 18.5L13.3 16.7V18.1L15.2 19.2L13.4 20.3L2 13.6L13.4 6.8ZM1.9 15.1L13.3 21.9V22.9L5.4 18.2V19.6L13.4 24.4V25.5L5.4 20.8V22.2L13.4 27L21.5 22.1V16.9L24.9 14.9V24.9L13.4 31.8L1.9 25V15.1Z"/>
</symbol><symbol id="like-icon" viewBox="0 0 23 21">
  <path opacity="0.3" d="M12.9636 3.78L12.3364 6.825L11.7091 9.45H14.3227H20.8045V11.55C20.8045 11.55 20.8045 11.55 20.8045 11.655L17.7727 18.9H8.36364V8.4L12.9636 3.78ZM2.09091 10.5V18.9V10.5ZM13.8 0L6.9 6.93C6.48182 7.245 6.27273 7.77 6.27273 8.4V18.9C6.27273 20.055 7.21364 21 8.36364 21H17.7727C18.6091 21 19.3409 20.475 19.6545 19.74L22.7909 12.285C22.8955 12.075 22.8955 11.76 22.8955 11.55V9.45H23C23 8.295 22.0591 7.35 20.9091 7.35H14.3227L15.3682 2.52V2.205C15.3682 1.785 15.1591 1.365 14.95 1.05L13.8 0ZM4.18182 8.4H0V21H4.18182V8.4Z" style="opacity: 1"/>
</symbol><symbol id="logo-icon-desktop" viewBox="0 0 187 97">
<path d="M186.6 0H0L80.5 90.5C87.6 98.4 99.1 98.4 106.2 90.5L186.6 0Z" fill="#81B3D3"/>
<path d="M43.2 0.7L92.8 59.1L142.1 1.1L43.2 0.7Z" fill="#23A9E1"/>
<path d="M122 17.3C116.9 17.3 111.9 17.4 106.8 17.4C112.8 10.5 115.5 11.2 122 17.3Z" fill="white"/>
<path d="M80.8 22.7C89.7 22.7 98.6 22.7 107.5 22.7C105.5 21.5 100.8 15.6 98.2 17.8C98 18 90.7 8.9 85.9 13.3C81.7 17.1 79.8 12.8 75 15.8C69.7 19.4 78.2 21.5 80.8 22.7Z" fill="white"/>
<path d="M93.0999 0H42.2V22.5L92.8 84L93.0999 83.6L143.8 23.2V0H93.0999ZM54.9 1.8H60.4V19L54.9 12.5V1.8ZM54.0999 11.6L49.0999 5.7V1.8H54.0999V11.6ZM73.4 8.9L67.6999 1.8H73.4V8.9ZM66.8 12.7L61.2 1.8H66.8V12.7ZM61.0999 3.4L66.5999 14.1C63.7999 16.2 61.8999 18.1 61.0999 19V3.4ZM67.5999 2.9L73.1999 9.8C72.0999 10.4 70.9999 11.1 70.0999 11.7C69.1999 12.3 68.3999 12.9 67.5999 13.5V2.9ZM74.1999 2.7L79 6.9C77.2999 7.6 75.6999 8.4 74.1999 9.2V2.7ZM79.8 6.6L74.4 1.8H80.4V6.4C80.1 6.4 80 6.5 79.8 6.6ZM98.9 1.8H103.9L98.9 4.2V1.8ZM93.0999 1.8H97.5L93.0999 3.9V1.8ZM92.1999 3.8L88 1.8H92.1999V3.8ZM86.6999 4.3L81.5999 1.8H86.6999V4.3ZM81.0999 2.4L85.8 4.7C84.2 5.1 82.5999 5.5 81.0999 6V2.4ZM87.5 2.4L90.9 4C89.7 4.1 88.6 4.2 87.4 4.4V2.4H87.5ZM97.9 2.5V4.4C96.8 4.2 95.7 4.1 94.5 4L97.9 2.5ZM104.4 2.4V6.1C102.9 5.6 101.3 5.1 99.5999 4.7L104.4 2.4ZM105.1 1.8H111L105.6 6.6C105.4 6.5 105.3 6.5 105.1 6.4V1.8ZM118.7 1.8H124.3L118.7 12.7V1.8ZM112.1 1.8H117.8L112.1 8.8V1.8ZM111.3 2.7V9.2C109.8 8.4 108.2 7.6 106.5 6.9L111.3 2.7ZM117.9 2.9V13.4C117.2 12.9 116.4 12.4 115.6 11.8C114.6 11.1 113.4 10.4 112.2 9.7L117.9 2.9ZM124.3 3.4V18.6C123.2 17.6 121.4 15.9 118.8 14L124.3 3.4ZM125.1 19.4V1.8H130.6V13.2L125.1 19.4C125.2 19.5 125.1 19.5 125.1 19.4ZM131.4 1.8H136.4V6.5L131.4 12.3V1.8ZM48.4 1.8V4.7L45.9 1.8H48.4ZM61.2 20L61.2999 20.1C61.2999 20.1 64.9 16.2 70.5 12.5C75.7999 9 83.8 4.9 92.8 5C101.7 5 109.9 9.2 115.1 12.7C120.7 16.4 124.4 20.2 124.5 20.3L120.6 24.8C113.7 25.7 108.7 30.9 102 29.8C98.5999 29.2 98.5 27.3 97.5 25.3C96.7999 23.8 95.5999 24 94 23.4C92.5999 22.8 91.7 21.7 88.8 22.3C86.3 22.9 86 26.8 82.8 26.6C81.1 26.5 81 24.1 78.5999 21.1C72.2999 13.5 66.4 14.6 62.4 21.6L92.6999 57.5L61.2 20ZM137.1 5.5V1.8H140.3L137.1 5.5Z" fill="#491213"/>
<path d="M88.7 70.9L92.8 64.4L96.8 70.9L92.8 77.4L88.7 70.9Z" fill="#23A9E1"/>
<path d="M65.4999 32.3C65.9999 32.9 66.3999 33.6 66.2999 34.4C66.1999 35 65.3999 36 65.9999 36.2C66.6999 35.3 67.4999 34.3 68.1999 33.4C67.5999 33.2 62.7999 27.6 62.7999 26.9C61.6999 27.5 60.6999 28.1 59.5999 28.6C59.7999 29.3 60.8999 28.6 61.4999 28.6C62.2999 28.7 62.8999 29.2 63.4999 29.8C61.7999 31.2 57.5999 34.8 57.0999 34.9C56.8999 34.9 55.9999 34.3 55.9999 34.8C55.9999 35.1 56.8999 35.8 56.9999 36C57.6999 36.9 58.4999 37.8 59.1999 38.7C59.7999 38.4 59.0999 38 59.3999 37.5C59.6999 37.1 64.2999 33.2 65.4999 32.3Z" fill="white"/>
<path d="M60.1999 25.3C60.5999 25.2 60.7999 25.7 61.1999 25.2C60.3999 24.2 59.5999 23.3 58.7999 22.3C58.3999 21.9 57.9999 21.4 58.0999 22.3C58.1999 22.9 51.9999 28 51.5999 28.1C51.0999 28.3 50.7999 27.7 50.4999 28.2C51.1999 29.1 51.9999 29.9 52.6999 30.8C52.8999 31.1 53.1999 31.4 53.3999 31.7C53.6999 32 53.5999 31 53.5999 31.1C53.4999 30.6 54.0999 30.2 54.4999 29.9C55.9999 28.6 59.7999 25.3 60.1999 25.3Z" fill="white"/>
<path d="M51.3999 24.4C49.5999 24.9 47.6999 24.2 47.1999 22.4C46.6999 20.6 47.7999 18.6 49.2999 17.6C50.6999 16.6 52.8999 16.6 53.6999 18.4C53.9999 19.2 53.8999 20.1 53.5999 20.9C53.3999 21.4 52.9999 21.9 53.6999 22.2C54.5999 21.1 55.3999 20 56.2999 18.9C55.1999 18.3 54.7999 17.2 53.9999 16.3C53.0999 15.2 51.8999 14.2 50.4999 14C47.5999 13.6 44.8999 16.6 44.6999 19.2C44.5999 20.7 45.0999 22 45.8999 23.2C46.6999 24.2 47.7999 24.8 48.2999 26C48.5999 26.1 50.9999 25 51.5999 24.7C51.4999 24.6 51.4999 24.5 51.3999 24.4C50.6999 24.6 51.3999 24.4 51.3999 24.4Z" fill="white"/>
<path d="M90.6999 60.8C89.4999 60 86.6999 56.1 86.0999 55.5C85.9999 55.4 85.8999 55.2 85.7999 55.1C85.7999 55.1 85.4999 55.3 85.5999 55.3C85.3999 55.4 85.6999 55.9 85.4999 56.2C84.6999 57.4 79.6999 61.2 79.4999 61.4C78.8999 61.8 78.2999 61.2 77.9999 61.7C78.6999 62.6 80.7999 65.2 80.9999 65.3C81.4999 65.4 81.0999 64.5 81.1999 64.3C81.2999 63.9 83.7999 61.9 84.6999 61.1C84.9999 60.8 85.3999 61.5 85.5999 61.8C85.8999 62.3 86.0999 62.8 85.8999 63.4C85.7999 63.8 85.1999 64.3 85.5999 64.6C86.1999 63.9 87.9999 61.8 88.1999 61.6C88.4999 61.3 87.5999 61.6 87.6999 61.5C87.2999 61.7 86.9999 61.7 86.5999 61.5C86.4999 61.4 85.4999 60.4 85.5999 60.3C85.9999 59.9 86.5999 59.3 87.0999 59.2C87.9999 59 88.6999 60.7 88.7999 61.3C88.8999 61.9 88.8999 62.5 88.6999 63.1C88.5999 63.5 88.1999 63.8 88.6999 64C89.3999 63 90.0999 62.1 90.7999 61.1C90.9999 60.9 90.7999 60.8 90.6999 60.8C90.5999 60.7 90.8999 60.8 90.6999 60.8Z" fill="white"/>
<path d="M80.5 56.6C82.7 54.7 83 51.5 81.3 49.3C79.4 46.8 75.9 46.2 73.5 48.2C71.3 50.1 70.9999 53.2 72.6999 55.5C74.6999 58.2 77.9 58.5 80.5 56.6C81.7 55.7 80.4 56.7 80.5 56.6ZM80 51.9C79.4 53.4 77.8 55 76.3 55.6C74.5 56.3 73.2 54.8 73.9 53C74.6 51.5 76.1 49.9 77.6 49.3C79.5 48.6 80.7 50.2 80 51.9C79.6 52.8 80.1 51.7 80 51.9Z" fill="white"/>
<path d="M74.0999 42C74.5999 42.1 75 42.5 75.4 42C74.7 41.1 73.8999 40.2 73.1999 39.4C72.5999 39.7 73.2 39.9 73 40.4C72.8 40.8 70.4 41.2 69.8 41.3C70 40.7 70.7 38.7 71 38.5C71.5 38.1 71.9 38.9 72.3 38.4C71.4 37.3 70.4999 36.2 69.5999 35.1C69.2999 34.7 68.9999 34.1 68.5999 34.4C68.5999 34.4 68.6 35.9 68.5 36.1C68.4 36.3 67.5999 39.7 66.5999 40.6C66.0999 41 64.4 42.5 63.9 42.7C63.4 42.9 63.1 42.1 62.7 42.7C63.5 43.7 64.3999 44.7 65.1999 45.7C65.2999 45.8 65.8 46.6 66 46.6C66.5 46.7 66.0999 45.7 66.0999 45.5C66.2999 45.1 68.5999 42.8 69.5999 42.6C70.7999 42.4 72.5999 41.9 74.0999 42C74.3999 42.1 73.6999 42 74.0999 42Z" fill="white"/>
<path d="M67.8 22.9C63.8 22.7 65.4 18.9 68.2 18.1C70.8 17.3 76.3 19.8 78 21.5C75.2 22.4 71.6 22.2 68.6 22.4C68.4 19.2 67.6 20.3 67.8 22.9Z" fill="#DC6243"/>
<path d="M77.3 35.4C68.7 35.3 74.5 22.1 77.4 22.9C80.8 24 80.4 35.5 77.3 35.4Z" fill="#DC6243"/>
<path d="M83.4 31.1C82.6 33.6 81 34.1 81.2 31C81.4 27.5 83.7 28.3 86.1 27C88.1 25.9 89.2 21.8 92.7 24.2C94.3 25.3 96.1 24.4 96.6 26C96.6 25.9 92.1 36.3 94.6 36.3C89.6 36.3 91.8 30.4 93.7 26.4C91.9 27.3 88.9 33.1 91.3 34C90 35.7 86.1 37.9 84.1 36.3C82.6 35.2 83.4 33.1 83.4 31.1Z" fill="#DC6243"/>
<path d="M87.5 40.7C84 41.7 79.4 39.5 85 38.4C88.5 37.7 92.2 39.1 87.5 40.7C87.6 40.7 87.4 40.7 87.5 40.7Z" fill="#DC6243"/>
<path d="M91.9 40.6C91.2 38.9 92.5 37 94.6 38.4C96.4 39.6 93.7 41.5 91.9 40.6Z" fill="#DC6243"/>
<path d="M88.8999 45.2C86.4999 44.5 78.3999 44.6 83.6999 42.4C85.3999 41.8 93.8999 42.6 88.8999 45.2Z" fill="#DC6243"/>
<path d="M99.3999 48.5C97.9999 47.3 96.4999 47.2 95.1999 48.5C93.3999 45.2 86.8999 46.3 83.7999 45.8C85.3999 49.9 98.5999 50.7 99.3999 48.5Z" fill="#DC6243"/>
<path d="M97.4999 51C94.2999 50.9 90.7999 50.4 87.8999 51.1C89.7999 51.6 94.2999 52.9 90.0999 54C91.5999 56.2 94.0999 56 95.6999 54.1C94.9999 53.8 94.6999 53.4 94.0999 53C95.6999 52.7 97.2999 51.8 97.4999 51Z" fill="#DC6243"/>
<path d="M101.1 47.1C95.7999 44 97.0999 41.7 101.5 39.5C103.8 38.4 108.8 34.3 110.9 35.6C107.6 39.5 104.3 43.3 101.1 47.1Z" fill="#DC6243"/>
<path d="M97.2999 39.8C92.7999 35.2 104 35.6 105.8 34C107.1 34.4 116.6 25.7 118.9 26.3C117.2 28.2 113.7 34.4 111.1 34.4C109.1 34.4 107.1 34.1 105.6 35.5C103.4 37.6 99.6999 38.6 97.2999 39.8Z" fill="#F49774"/>
<path d="M98.7999 34.2C96.2999 35.5 93.9999 30.3 98.2999 30.8C101.1 31.1 104 30.6 106.6 31C104.6 33.3 101.9 34.6 98.7999 34.2Z" fill="#F4B1A4"/>
<path d="M111.4 52.5C111.6 53.1 111.7 53.8 111.6 54.5C111.5 55.4 110.6 57.4 109.4 56.8C108.2 56.2 107.2 55.1 106.2 54.2C107 53.3 107.7 52.5 109.1 52.9C109.5 53 109.8 52.9 109.4 52.6C109 52.4 106.3 50.6 106.1 50.8C105.8 51.1 106.6 51.7 106.3 52.3C106.1 52.7 105.7 53.1 105.4 53.5C104.7 52.9 103.5 52.2 104.3 51.2C104.8 50.5 105.6 50 106.4 49.9C107 49.8 108.2 50.3 108.4 49.7C107.3 49.2 106.2 48.7 105.1 48.1C105.3 48.9 101.8 52.6 101 53.6C100.9 53.7 100.3 54.2 100.3 54.4C100.3 54.8 100.9 54.5 101 54.5C101.5 54.3 107.8 59.6 108 60C108.1 60.3 107.8 60.6 108 60.7C108 60.7 108.2 60.9 108.3 60.9C108.7 60.4 112.8 54.9 113.7 54.7C112.9 53.5 112.1 52.3 111.3 51C110.7 51.3 111.3 52 111.4 52.5Z" fill="white"/>
<path d="M105.2 59.2C103.1 57.9 99.5999 60.5 99.0999 60.7C98.0999 61.2 97.2999 60.2 97.7999 59.2C98.2999 58.4 99.1999 58 100.1 57.9C100.4 57.9 101.4 58.1 101.6 57.9C101.7 57.7 101.8 57.7 101.6 57.6C100.7 57 99.8999 56.4 98.9999 55.9C98.7999 57 97.5999 57.6 96.8999 58.3C96.0999 59.2 95.3999 60.2 95.3999 61.5C95.3999 62.6 96.0999 63.6 97.0999 64.2C98.1999 64.8 99.3999 64.3 100.4 63.7C101 63.3 101.7 62.8 102.3 62.5C103.3 62 104.6 62.4 104.3 63.8C104 64.9 102.9 65.9 101.9 66.1C101.3 66.3 100.6 66.2 99.9999 66C99.5999 65.9 98.9999 65.3 98.7999 65.9C99.9999 66.7 101.1 67.6 102.3 68.4C102.4 67.6 102.8 67.3 103.4 66.8C104.1 66.2 104.8 65.5 105.4 64.7C106.6 63 107 60.6 105.2 59.2Z" fill="white"/>
<path d="M105.2 59.2C106.2 59.8 104.6 58.7 105.2 59.2V59.2Z" fill="white"/>
<path d="M141.9 19.6C141.2 20.3 133.5 17.3 132.9 16.8C132.6 16.7 132.6 15.5 132.2 16C131.8 16.5 131.4 17 131 17.5C130.6 18 130.2 18.5 129.7 19C129.4 19.3 129.2 19.5 129.7 19.7C130.5 19.3 135.1 27 134.7 28.2C134 28.6 127.8 23.1 127.6 22.8C127.5 22.7 127.9 21.8 127.4 21.9C127.2 21.9 126.7 22.8 126.5 23C126.2 23.4 125.9 23.7 125.6 24.1C125.9 24.6 126.1 24.1 126.6 24.1C127 24.2 128.4 25.4 128.8 25.8C128.1 25.8 126.1 25.9 125.9 25.9C125 26 125.5 25.2 124.9 25C124.1 25.9 123.4 26.8 122.6 27.8C122.2 28.3 121.7 28.9 121.3 29.4C121.2 29.5 121.3 29.4 121.3 29.5C121.6 29.8 121.4 29.7 121.9 29.5C122.4 29.3 128.5 34.4 128.7 34.7C129.1 35.1 128.5 35.7 129.1 35.9C129.7 35.2 130.3 34.4 130.9 33.7C131 33.6 131 33.6 130.9 33.5C130.5 33.1 130.4 33.7 129.9 33.7C129.4 33.6 125.5 30.3 124 29.1C125.8 29 131.3 28.8 132.2 28.8C132.5 28.8 133.3 29.7 133.3 30C133.2 30.4 132.8 30.6 133.4 30.8C133.9 30.2 134.4 29.7 134.9 29.1L135.1 28.8C135.2 28.7 135.2 28.7 135.3 28.5L135.5 28.3C135.9 27.8 137.3 26.3 137.1 26.2C136.6 25.8 136.4 26.7 135.8 26.1C135.5 25.9 134.6 24.3 134.4 23.9C134.1 23.5 135 23 135.4 22.8C136.2 22.3 138.6 21.6 138.9 23.1C138.9 23.4 138.6 23.6 138.8 23.8C138.8 23.8 139 24 139.1 24C139.3 23.8 141.5 21.2 142.4 20C142.1 19.8 142 19.7 141.9 19.6ZM134.5 21.8C134.6 21.8 134.7 21.7 134.5 21.8C134.2 22 133.8 22.3 133.5 22.6C133 21.7 132.5 20.8 131.9 19.9C133.1 20.4 134.3 20.9 135.4 21.4C135.2 21.5 134.9 21.6 134.5 21.8Z" fill="white"/>
<path d="M124.8 33C122.4 31 119.2 31.6 117.2 33.8C115.3 36.1 115.5 39.5 117.8 41.4C120.1 43.3 123.5 42.8 125.4 40.6C127.3 38.3 127.2 34.9 124.8 33ZM124.5 39.6C124.5 39.6 124.5 39.7 124.5 39.6C123.2 40.9 121.1 39.7 120 38.9C118.9 38.1 116.9 36.3 118.1 34.8C119.2 33.5 121.2 34.6 122.3 35.3C123.5 36.1 125.7 37.9 124.6 39.5C124.7 39.4 124.7 39.4 124.5 39.6Z" fill="white"/>
<path d="M124.8 33C126 34 124.5 32.8 124.8 33V33Z" fill="white"/>
<path d="M124.5 39.7C124.5 39.6 124.5 39.6 124.5 39.7C124.6 39.6 124.6 39.6 124.6 39.6C124.5 39.6 124.5 39.7 124.5 39.7Z" fill="white"/>
<path d="M118.2 42.1C118.3 42.2 118.5 42.4 118.2 42.1C115.3 39.9 111.9 40.5 109.7 43.2C108.7 44.4 107.7 45.6 106.7 46.8C107.1 47.3 107.5 46.7 108 47C108.4 47.3 114.2 52.1 114.3 52.4C114.5 52.9 114 52.9 114.4 53.3C114.6 53.4 118.9 48.1 119.3 47.1C120.2 45.3 119.6 43.4 118.2 42.1ZM116.9 48.9C116.7 49.2 116.9 49 116.2 49.6C115.9 49.9 109.8 44.9 110 44.7C110.8 43.8 112.6 43.1 113.6 43.4C115.8 43.9 118.8 46.6 116.9 48.9Z" fill="white"/>
</symbol><symbol id="logo-icon-mobile" viewBox="0 0 102 84">
<path d="M0 0L50.6 59.1L101.7 0H0Z" fill="#23A9E1"/>
<path d="M50.9 0H0V22.5L50.6 84L50.9 83.6L101.6 23.2V0H50.9ZM50.9 57.1L50.6 57.5L3.7 1.8H50.9H98.1L50.9 57.1Z" fill="#491213"/>
<path d="M50.6 57.5L50.9 57.1L78.5 24.8C71.6 25.7 66.6 30.9 59.9 29.8C56.5 29.2 56.4 27.3 55.4 25.3C54.7 23.8 53.5 24 51.9 23.4C50.5 22.8 49.6 21.7 46.7 22.3C44.2 22.9 43.9 26.8 40.7 26.6C39 26.5 38.9 24.1 36.5 21.1C30.2 13.5 24.3 14.6 20.3 21.6L50.6 57.5Z" fill="#491213"/>
<path d="M23.3 32.2C23.8 32.8 24.2 33.5 24.1 34.3C24 34.9 23.2 35.8 23.8 36.1C24.5 35.2 25.3 34.2 26 33.3C25.4 33.1 20.6 27.5 20.6 26.8C19.5 27.4 18.5 28 17.4 28.5C17.6 29.2 18.7 28.5 19.3 28.5C20.1 28.6 20.7 29.1 21.3 29.7C19.6 31.1 15.4 34.7 14.9 34.8C14.7 34.8 13.8 34.2 13.8 34.7C13.8 35 14.7 35.7 14.8 35.9C15.5 36.8 16.3 37.7 17 38.6C17.6 38.3 16.9 37.9 17.2 37.4C17.5 37.1 22.1 33.2 23.3 32.2Z" fill="white"/>
<path d="M18 25.3C18.4 25.2 18.6 25.7 19 25.2C18.2 24.2 17.4 23.3 16.6 22.3C16.2 21.9 15.8 21.4 15.9 22.3C16 22.9 9.8 28 9.4 28.1C8.9 28.3 8.6 27.7 8.3 28.2C9 29.1 9.8 29.9 10.5 30.8C10.7 31.1 11 31.4 11.2 31.7C11.5 32 11.4 31 11.4 31.1C11.3 30.6 11.9 30.2 12.3 29.9C13.8 28.5 17.6 25.3 18 25.3Z" fill="white"/>
<path d="M9.2 24.4C7.4 24.9 5.6 24.2 5 22.4C4.5 20.6 5.6 18.6 7.1 17.6C8.5 16.6 10.7 16.6 11.5 18.4C11.8 19.2 11.7 20.1 11.4 20.9C11.2 21.4 10.8 21.9 11.5 22.2C12.4 21.1 13.2 20 14.1 18.9C13 18.3 12.6 17.2 11.8 16.3C10.9 15.2 9.7 14.2 8.3 14C5.4 13.6 2.7 16.6 2.5 19.2C2.4 20.7 2.9 22 3.7 23.2C4.5 24.2 5.6 24.8 6.1 26C6.4 26.1 8.8 25 9.4 24.7C9.3 24.6 9.3 24.4 9.2 24.4C8.5 24.6 9.2 24.4 9.2 24.4Z" fill="white"/>
<path d="M48.5 60.8C47.3 60 44.5 56.1 43.9 55.5C43.8 55.4 43.7 55.2 43.6 55.1C43.6 55.1 43.3 55.3 43.4 55.3C43.2 55.4 43.5 55.9 43.3 56.2C42.5 57.4 37.5 61.2 37.3 61.4C36.7 61.8 36.1 61.2 35.8 61.7C36.5 62.6 38.6 65.2 38.8 65.3C39.3 65.4 38.9 64.5 39 64.3C39.1 63.9 41.6 61.9 42.5 61.1C42.8 60.8 43.2 61.5 43.4 61.8C43.7 62.3 43.9 62.8 43.7 63.4C43.6 63.8 43 64.3 43.4 64.6C44 63.9 45.8 61.8 46 61.6C46.3 61.3 45.4 61.6 45.5 61.5C45.1 61.7 44.8 61.7 44.4 61.5C44.3 61.4 43.3 60.4 43.4 60.3C43.8 59.9 44.4 59.3 44.9 59.2C45.8 59 46.5 60.7 46.6 61.3C46.7 61.9 46.7 62.5 46.5 63.1C46.4 63.5 46 63.8 46.5 64C47.2 63 47.9 62.1 48.6 61.1C48.8 60.9 48.6 60.8 48.5 60.8C48.4 60.7 48.7 60.8 48.5 60.8Z" fill="white"/>
<path d="M38.3 56.6C40.5 54.7 40.8 51.5 39.1 49.3C37.2 46.8 33.7 46.2 31.3 48.2C29.1 50.1 28.8 53.2 30.5 55.5C32.5 58.2 35.7 58.5 38.3 56.6C39.5 55.7 38.2 56.7 38.3 56.6ZM37.8 51.9C37.2 53.4 35.6 55 34.1 55.6C32.3 56.3 31 54.8 31.7 53C32.3 51.5 33.9 49.9 35.4 49.3C37.3 48.6 38.5 50.2 37.8 51.9C37.5 52.8 37.9 51.7 37.8 51.9Z" fill="white"/>
<path d="M31.9 42C32.4 42.1 32.8 42.6 33.2 42C32.5 41.1 31.7 40.2 31 39.4C30.4 39.7 31 39.9 30.8 40.4C30.6 40.8 28.2 41.2 27.6 41.3C27.8 40.7 28.5 38.7 28.8 38.5C29.3 38.1 29.7 38.9 30.1 38.4C29.2 37.3 28.3 36.2 27.4 35.1C27.1 34.7 26.8 34.1 26.4 34.4C26.4 34.4 26.4 35.9 26.3 36.1C26.2 36.3 25.4 39.7 24.4 40.6C23.9 41 22.2 42.5 21.7 42.7C21.2 42.9 20.9 42.1 20.5 42.7C21.3 43.7 22.2 44.7 23 45.7C23.1 45.8 23.6 46.6 23.8 46.6C24.3 46.7 23.9 45.7 23.9 45.5C24.1 45.1 26.4 42.8 27.4 42.6C28.6 42.3 30.4 41.8 31.9 42C32.2 42.1 31.5 42 31.9 42Z" fill="white"/>
<path d="M69.2 52.4C69.4 53 69.5 53.7 69.4 54.4C69.3 55.3 68.4 57.3 67.2 56.7C66 56.1 65 55 64 54.1C64.8 53.2 65.5 52.4 66.9 52.8C67.3 52.9 67.6 52.8 67.2 52.5C66.8 52.3 64.1 50.5 63.9 50.7C63.6 51 64.4 51.6 64.1 52.2C63.9 52.6 63.5 53 63.2 53.4C62.5 52.8 61.3 52.1 62.1 51.1C62.6 50.4 63.4 49.9 64.2 49.8C64.8 49.7 66 50.2 66.2 49.6C65.1 49.1 64 48.6 62.9 48C63.1 48.8 59.6 52.5 58.8 53.5C58.7 53.6 58.1 54.1 58.1 54.3C58.1 54.7 58.7 54.4 58.8 54.4C59.3 54.2 65.6 59.5 65.8 59.9C65.9 60.2 65.6 60.5 65.8 60.6C65.8 60.6 66 60.8 66.1 60.8C66.5 60.3 70.6 54.8 71.5 54.6C70.7 53.4 69.9 52.2 69.1 50.9C68.5 51.3 69.1 52 69.2 52.4Z" fill="white"/>
<path d="M63 59.2C60.9 57.9 57.4 60.5 56.9 60.7C55.9 61.2 55.1 60.2 55.6 59.2C56.1 58.4 57 58 57.9 57.9C58.2 57.9 59.3 58.1 59.4 57.9C59.5 57.7 59.6 57.7 59.4 57.6C58.5 57 57.7 56.4 56.8 55.9C56.6 57 55.4 57.6 54.7 58.3C53.9 59.2 53.2 60.2 53.2 61.5C53.2 62.6 53.9 63.6 54.9 64.2C56 64.8 57.2 64.3 58.2 63.7C58.8 63.3 59.5 62.8 60.1 62.5C61.1 62 62.4 62.4 62.1 63.8C61.8 64.9 60.7 65.9 59.7 66.1C59.1 66.3 58.4 66.2 57.8 66C57.4 65.9 56.8 65.3 56.6 65.9C57.8 66.7 58.9 67.6 60.1 68.4C60.2 67.6 60.6 67.3 61.2 66.8C61.9 66.2 62.6 65.5 63.2 64.7C64.4 63 64.8 60.6 63 59.2Z" fill="white"/>
<path d="M63 59.2C64 59.7 62.4 58.7 63 59.2V59.2Z" fill="white"/>
<path d="M99.7 19.6C99 20.3 91.3 17.3 90.7 16.8C90.4 16.7 90.4 15.5 90 16C89.6 16.5 89.2 17 88.8 17.5C88.4 18 88 18.5 87.5 19C87.2 19.3 87 19.5 87.5 19.7C88.3 19.3 92.9 27 92.5 28.2C91.8 28.6 85.6 23.1 85.4 22.8C85.3 22.7 85.7 21.8 85.2 21.9C85 21.9 84.5 22.8 84.3 23C84 23.4 83.7 23.7 83.4 24.1C83.7 24.6 83.9 24.1 84.4 24.1C84.8 24.2 86.2 25.4 86.6 25.8C85.9 25.8 83.9 25.9 83.7 25.9C82.8 26 83.3 25.2 82.7 25C81.9 25.9 81.2 26.8 80.4 27.8C80 28.3 79.5 28.9 79.1 29.4C79 29.5 79.1 29.4 79.2 29.5C79.5 29.8 79.3 29.7 79.8 29.5C80.3 29.3 86.4 34.4 86.6 34.7C87 35.2 86.4 35.7 87 35.9C87.6 35.2 88.2 34.4 88.8 33.7C88.9 33.6 88.9 33.6 88.8 33.5C88.4 33.1 88.3 33.7 87.8 33.7C87.3 33.6 83.4 30.3 81.9 29.1C83.7 29 89.2 28.8 90.1 28.8C90.4 28.8 91.2 29.7 91.2 30C91.1 30.4 90.7 30.6 91.3 30.8C91.8 30.2 92.3 29.7 92.8 29.1L93 28.8C93.1 28.7 93.1 28.7 93.2 28.5L93.4 28.3C93.8 27.8 95.2 26.3 95 26.1C94.5 25.7 94.3 26.6 93.7 26C93.4 25.8 92.5 24.2 92.3 23.8C92 23.4 92.9 22.9 93.3 22.7C94.1 22.2 96.5 21.5 96.8 23C96.8 23.3 96.5 23.5 96.7 23.7C96.7 23.7 96.9 23.9 97 23.9C97.2 23.7 99.4 21.1 100.3 19.9C99.9 19.8 99.8 19.7 99.7 19.6ZM92.3 21.8C92.4 21.7 92.5 21.7 92.3 21.8C92 22 91.6 22.3 91.3 22.6C90.8 21.7 90.3 20.8 89.7 19.9C90.9 20.4 92.1 20.9 93.2 21.4C93 21.4 92.7 21.6 92.3 21.8Z" fill="white"/>
<path d="M82.6 33C80.2 31 77 31.6 75 33.8C73.1 36.1 73.3 39.5 75.6 41.4C77.9 43.3 81.3 42.8 83.2 40.6C85.1 38.3 85 34.9 82.6 33ZM82.3 39.6C81 40.9 78.9 39.7 77.8 38.9C76.7 38.1 74.7 36.3 75.9 34.8C77 33.5 79 34.6 80.1 35.3C81.3 36.1 83.5 37.9 82.4 39.5C82.5 39.4 82.5 39.4 82.3 39.6Z" fill="white"/>
<path d="M82.6 33C83.8 34 82.3 32.8 82.6 33V33Z" fill="white"/>
<path d="M82.3 39.6C82.4 39.5 82.4 39.5 82.4 39.5C82.3 39.6 82.3 39.6 82.3 39.6Z" fill="white"/>
<path d="M76 42.1C76.1 42.2 76.3 42.3 76 42.1C73.1 39.9 69.7 40.5 67.5 43.2C66.5 44.4 65.5 45.6 64.5 46.8C64.9 47.3 65.3 46.7 65.8 47C66.2 47.3 72 52.1 72.1 52.4C72.3 52.9 71.8 52.9 72.2 53.3C72.4 53.4 76.7 48.1 77.1 47.1C78 45.3 77.4 43.3 76 42.1ZM74.7 48.9C74.5 49.2 74.7 49 74 49.6C73.7 49.9 67.6 44.9 67.8 44.7C68.6 43.8 70.4 43.1 71.4 43.4C73.6 43.8 76.6 46.5 74.7 48.9Z" fill="white"/>
<path d="M50.6 57.5L50.9 57.1L78.5 24.8C71.6 25.7 66.6 30.9 59.9 29.8C56.5 29.2 56.4 27.3 55.4 25.3C54.7 23.8 53.5 24 51.9 23.4C50.5 22.8 49.6 21.7 46.7 22.3C44.2 22.9 43.9 26.8 40.7 26.6C39 26.5 38.9 24.1 36.5 21.1C30.2 13.5 24.3 14.6 20.3 21.6L50.6 57.5Z" fill="#491213"/>
<path d="M46.5 70.9L50.6 64.4L54.6 70.9L50.6 77.4L46.5 70.9Z" fill="#23A9E1"/>
<path d="M23.3 32.3C23.8 32.9 24.2 33.6 24.1 34.4C24 35 23.2 36 23.8 36.2C24.5 35.3 25.3 34.3 26 33.4C25.4 33.2 20.6 27.6 20.6 26.9C19.5 27.5 18.5 28.1 17.4 28.6C17.6 29.3 18.7 28.6 19.3 28.6C20.1 28.7 20.7 29.2 21.3 29.8C19.6 31.2 15.4 34.8 14.9 34.9C14.7 34.9 13.8 34.3 13.8 34.8C13.8 35.1 14.7 35.8 14.8 36C15.5 36.9 16.3 37.8 17 38.7C17.6 38.4 16.9 38 17.2 37.5C17.5 37.1 22.1 33.2 23.3 32.3Z" fill="white"/>
<path d="M18 25.3C18.4 25.2 18.6 25.7 19 25.2C18.2 24.2 17.4 23.3 16.6 22.3C16.2 21.9 15.8 21.4 15.9 22.3C16 22.9 9.8 28 9.4 28.1C8.9 28.3 8.6 27.7 8.3 28.2C9 29.1 9.8 29.9 10.5 30.8C10.7 31.1 11 31.4 11.2 31.7C11.5 32 11.4 31 11.4 31.1C11.3 30.6 11.9 30.2 12.3 29.9C13.8 28.6 17.6 25.3 18 25.3Z" fill="white"/>
<path d="M9.2 24.4C7.4 24.9 5.5 24.2 5 22.4C4.5 20.6 5.6 18.6 7.1 17.6C8.5 16.6 10.7 16.6 11.5 18.4C11.8 19.2 11.7 20.1 11.4 20.9C11.2 21.4 10.8 21.9 11.5 22.2C12.4 21.1 13.2 20 14.1 18.9C13 18.3 12.6 17.2 11.8 16.3C10.9 15.2 9.7 14.2 8.3 14C5.4 13.6 2.7 16.6 2.5 19.2C2.4 20.7 2.9 22 3.7 23.2C4.5 24.2 5.6 24.8 6.1 26C6.4 26.1 8.8 25 9.4 24.7C9.3 24.6 9.3 24.5 9.2 24.4C8.5 24.6 9.2 24.4 9.2 24.4Z" fill="white"/>
<path d="M48.5 60.8C47.3 60 44.5 56.1 43.9 55.5C43.8 55.4 43.7 55.2 43.6 55.1C43.6 55.1 43.3 55.3 43.4 55.3C43.2 55.4 43.5 55.9 43.3 56.2C42.5 57.4 37.5 61.2 37.3 61.4C36.7 61.8 36.1 61.2 35.8 61.7C36.5 62.6 38.6 65.2 38.8 65.3C39.3 65.4 38.9 64.5 39 64.3C39.1 63.9 41.6 61.9 42.5 61.1C42.8 60.8 43.2 61.5 43.4 61.8C43.7 62.3 43.9 62.8 43.7 63.4C43.6 63.8 43 64.3 43.4 64.6C44 63.9 45.8 61.8 46 61.6C46.3 61.3 45.4 61.6 45.5 61.5C45.1 61.7 44.8 61.7 44.4 61.5C44.3 61.4 43.3 60.4 43.4 60.3C43.8 59.9 44.4 59.3 44.9 59.2C45.8 59 46.5 60.7 46.6 61.3C46.7 61.9 46.7 62.5 46.5 63.1C46.4 63.5 46 63.8 46.5 64C47.2 63 47.9 62.1 48.6 61.1C48.8 60.9 48.6 60.8 48.5 60.8C48.4 60.7 48.7 60.8 48.5 60.8Z" fill="white"/>
<path d="M38.3 56.6C40.5 54.7 40.8 51.5 39.1 49.3C37.2 46.8 33.7 46.2 31.3 48.2C29.1 50.1 28.8 53.2 30.5 55.5C32.5 58.2 35.7 58.5 38.3 56.6C39.5 55.7 38.2 56.7 38.3 56.6ZM37.8 51.9C37.2 53.4 35.6 55 34.1 55.6C32.3 56.3 31 54.8 31.7 53C32.4 51.5 33.9 49.9 35.4 49.3C37.3 48.6 38.5 50.2 37.8 51.9C37.4 52.8 37.9 51.7 37.8 51.9Z" fill="white"/>
<path d="M31.9 42C32.4 42.1 32.8 42.5 33.2 42C32.5 41.1 31.7 40.2 31 39.4C30.4 39.7 31 39.9 30.8 40.4C30.6 40.8 28.2 41.2 27.6 41.3C27.8 40.7 28.5 38.7 28.8 38.5C29.3 38.1 29.7 38.9 30.1 38.4C29.2 37.3 28.3 36.2 27.4 35.1C27.1 34.7 26.8 34.1 26.4 34.4C26.4 34.4 26.4 35.9 26.3 36.1C26.2 36.3 25.4 39.7 24.4 40.6C23.9 41 22.2 42.5 21.7 42.7C21.2 42.9 20.9 42.1 20.5 42.7C21.3 43.7 22.2 44.7 23 45.7C23.1 45.8 23.6 46.6 23.8 46.6C24.3 46.7 23.9 45.7 23.9 45.5C24.1 45.1 26.4 42.8 27.4 42.6C28.6 42.4 30.4 41.9 31.9 42C32.2 42.1 31.5 42 31.9 42Z" fill="white"/>
<path d="M25.6 22.9C21.6 22.7 23.2 18.9 26 18.1C28.6 17.3 34.1 19.8 35.8 21.5C33 22.4 29.4 22.2 26.4 22.4C26.2 19.2 25.4 20.3 25.6 22.9Z" fill="#DC6243"/>
<path d="M26.6 27.7C24.6 26.1 25.2 22.4 28.4 23.6C32.4 25.7 27.5 26.8 26.6 27.7Z" fill="#DC6243"/>
<path d="M35.1 35.4C26.5 35.3 32.3 22.1 35.2 22.9C38.6 24 38.2 35.5 35.1 35.4Z" fill="#DC6243"/>
<path d="M41.2 31.1C40.4 33.6 38.8 34.1 39 31C39.2 27.5 41.5 28.3 43.9 27C45.9 25.9 47 21.8 50.5 24.2C52.1 25.3 53.9 24.4 54.4 26C54.4 25.9 49.9 36.3 52.4 36.3C47.4 36.3 49.6 30.4 51.5 26.4C49.7 27.3 46.7 33.1 49.1 34C47.8 35.7 43.9 37.9 41.9 36.3C40.4 35.2 41.2 33.1 41.2 31.1Z" fill="#DC6243"/>
<path d="M45.3 40.7C41.8 41.7 37.2 39.5 42.8 38.4C46.3 37.7 50 39.1 45.3 40.7C45.4 40.7 45.2 40.7 45.3 40.7Z" fill="#DC6243"/>
<path d="M49.7 40.6C49 38.9 50.3 37 52.4 38.4C54.2 39.6 51.5 41.5 49.7 40.6Z" fill="#DC6243"/>
<path d="M46.7 45.2C44.3 44.5 36.2 44.6 41.5 42.4C43.2 41.8 51.7 42.6 46.7 45.2Z" fill="#DC6243"/>
<path d="M49.9 44.9C49.9 43.9 49.4 42.2 51.3 43C53.5 43.8 49.9 45.6 49.9 44.9C49.9 44.9 49.9 44.7 49.9 44.9Z" fill="#DC6243"/>
<path d="M57.2 48.5C55.8 47.3 54.3 47.2 53 48.5C51.2 45.2 44.7 46.3 41.6 45.8C43.2 49.9 56.4 50.7 57.2 48.5Z" fill="#DC6243"/>
<path d="M55.3 51C52.1 50.9 48.6 50.4 45.7 51.1C47.6 51.6 52.1 52.9 47.9 54C49.4 56.2 51.9 56 53.5 54.1C52.8 53.8 52.5 53.4 51.9 53C53.5 52.7 55.1 51.8 55.3 51Z" fill="#DC6243"/>
<path d="M58.9 47.1C53.6 44 54.9 41.7 59.3 39.5C61.6 38.4 66.6 34.3 68.7 35.6C65.4 39.5 62.1 43.3 58.9 47.1Z" fill="#DC6243"/>
<path d="M55.1 39.8C50.6 35.2 61.8 35.6 63.6 34C64.9 34.4 74.4 25.7 76.7 26.3C75 28.2 71.5 34.4 68.9 34.4C66.9 34.4 64.9 34.1 63.4 35.5C61.2 37.6 57.5 38.6 55.1 39.8Z" fill="#F49774"/>
<path d="M56.6 34.2C54.1 35.5 51.8 30.3 56.1 30.8C58.9 31.1 61.8 30.6 64.4 31C62.4 33.3 59.7 34.6 56.6 34.2Z" fill="#F4B1A4"/>
<path d="M69.2 52.5C69.4 53.1 69.5 53.8 69.4 54.5C69.3 55.4 68.4 57.4 67.2 56.8C66 56.2 65 55.1 64 54.2C64.8 53.3 65.5 52.5 66.9 52.9C67.3 53 67.6 52.9 67.2 52.6C66.8 52.4 64.1 50.6 63.9 50.8C63.6 51.1 64.4 51.7 64.1 52.3C63.9 52.7 63.5 53.1 63.2 53.5C62.5 52.9 61.3 52.2 62.1 51.2C62.6 50.5 63.4 50 64.2 49.9C64.8 49.8 66 50.3 66.2 49.7C65.1 49.2 64 48.7 62.9 48.1C63.1 48.9 59.6 52.6 58.8 53.6C58.7 53.7 58.1 54.2 58.1 54.4C58.1 54.8 58.7 54.5 58.8 54.5C59.3 54.3 65.6 59.6 65.8 60C65.9 60.3 65.6 60.6 65.8 60.7C65.8 60.7 66 60.9 66.1 60.9C66.5 60.4 70.6 54.9 71.5 54.7C70.7 53.5 69.9 52.3 69.1 51C68.5 51.3 69.1 52 69.2 52.5Z" fill="white"/>
<path d="M63 59.2C60.9 57.9 57.4 60.5 56.9 60.7C55.9 61.2 55.1 60.2 55.6 59.2C56.1 58.4 57 58 57.9 57.9C58.2 57.9 59.2 58.1 59.4 57.9C59.5 57.7 59.6 57.7 59.4 57.6C58.5 57 57.7 56.4 56.8 55.9C56.6 57 55.4 57.6 54.7 58.3C53.9 59.2 53.2 60.2 53.2 61.5C53.2 62.6 53.9 63.6 54.9 64.2C56 64.8 57.2 64.3 58.2 63.7C58.8 63.3 59.5 62.8 60.1 62.5C61.1 62 62.4 62.4 62.1 63.8C61.8 64.9 60.7 65.9 59.7 66.1C59.1 66.3 58.4 66.2 57.8 66C57.4 65.9 56.8 65.3 56.6 65.9C57.8 66.7 58.9 67.6 60.1 68.4C60.2 67.6 60.6 67.3 61.2 66.8C61.9 66.2 62.6 65.5 63.2 64.7C64.4 63 64.8 60.6 63 59.2Z" fill="white"/>
<path d="M63 59.2C64 59.8 62.4 58.7 63 59.2V59.2Z" fill="white"/>
<path d="M99.7 19.6C99 20.3 91.3 17.3 90.7 16.8C90.4 16.7 90.4 15.5 90 16C89.6 16.5 89.2 17 88.8 17.5C88.4 18 88 18.5 87.5 19C87.2 19.3 87 19.5 87.5 19.7C88.3 19.3 92.9 27 92.5 28.2C91.8 28.6 85.6 23.1 85.4 22.8C85.3 22.7 85.7 21.8 85.2 21.9C85 21.9 84.5 22.8 84.3 23C84 23.4 83.7 23.7 83.4 24.1C83.7 24.6 83.9 24.1 84.4 24.1C84.8 24.2 86.2 25.4 86.6 25.8C85.9 25.8 83.9 25.9 83.7 25.9C82.8 26 83.3 25.2 82.7 25C81.9 25.9 81.2 26.8 80.4 27.8C80 28.3 79.5 28.9 79.1 29.4C79 29.5 79.1 29.4 79.1 29.5C79.4 29.8 79.2 29.7 79.7 29.5C80.2 29.3 86.3 34.4 86.5 34.7C86.9 35.1 86.3 35.7 86.9 35.9C87.5 35.2 88.1 34.4 88.7 33.7C88.8 33.6 88.8 33.6 88.7 33.5C88.3 33.1 88.2 33.7 87.7 33.7C87.2 33.6 83.3 30.3 81.8 29.1C83.6 29 89.1 28.8 90 28.8C90.3 28.8 91.1 29.7 91.1 30C91 30.4 90.6 30.6 91.2 30.8C91.7 30.2 92.2 29.7 92.7 29.1L92.9 28.8C93 28.7 93 28.7 93.1 28.5L93.3 28.3C93.7 27.8 95.1 26.3 94.9 26.2C94.4 25.8 94.2 26.7 93.6 26.1C93.3 25.9 92.4 24.3 92.2 23.9C91.9 23.5 92.8 23 93.2 22.8C94 22.3 96.4 21.6 96.7 23.1C96.7 23.4 96.4 23.6 96.6 23.8C96.6 23.8 96.8 24 96.9 24C97.1 23.8 99.3 21.2 100.2 20C99.9 19.8 99.8 19.7 99.7 19.6ZM92.3 21.8C92.4 21.8 92.5 21.7 92.3 21.8C92 22 91.6 22.3 91.3 22.6C90.8 21.7 90.3 20.8 89.7 19.9C90.9 20.4 92.1 20.9 93.2 21.4C93 21.5 92.7 21.6 92.3 21.8Z" fill="white"/>
<path d="M82.6 33C80.2 31 77 31.6 75 33.8C73.1 36.1 73.3 39.5 75.6 41.4C77.9 43.3 81.3 42.8 83.2 40.6C85.1 38.3 85 34.9 82.6 33ZM82.3 39.6C82.3 39.6 82.3 39.7 82.3 39.6C81 40.9 78.9 39.7 77.8 38.9C76.7 38.1 74.7 36.3 75.9 34.8C77 33.5 79 34.6 80.1 35.3C81.3 36.1 83.5 37.9 82.4 39.5C82.5 39.4 82.5 39.4 82.3 39.6Z" fill="white"/>
<path d="M82.6 33C83.8 34 82.3 32.8 82.6 33V33Z" fill="white"/>
<path d="M82.3 39.7C82.3 39.6 82.3 39.6 82.3 39.7C82.4 39.6 82.4 39.6 82.4 39.6C82.3 39.6 82.3 39.7 82.3 39.7Z" fill="white"/>
<path d="M76 42.1C76.1 42.2 76.3 42.4 76 42.1C73.1 39.9 69.7 40.5 67.5 43.2C66.5 44.4 65.5 45.6 64.5 46.8C64.9 47.3 65.3 46.7 65.8 47C66.2 47.3 72 52.1 72.1 52.4C72.3 52.9 71.8 52.9 72.2 53.3C72.4 53.4 76.7 48.1 77.1 47.1C78 45.3 77.4 43.4 76 42.1ZM74.7 48.9C74.5 49.2 74.7 49 74 49.6C73.7 49.9 67.6 44.9 67.8 44.7C68.6 43.8 70.4 43.1 71.4 43.4C73.6 43.9 76.6 46.6 74.7 48.9Z" fill="white"/>
</symbol><symbol id="logo-icon-tablet" viewBox="0 0 102 84">
<path d="M1 0.700195L50.6 59.1002L99.9 1.1002L1 0.700195Z" fill="#23A9E1"/>
<path d="M79.8001 17.3002C74.7001 17.3002 69.7001 17.4002 64.6001 17.4002C70.6001 10.5002 73.3001 11.2002 79.8001 17.3002Z" fill="white"/>
<path d="M38.5999 22.6997C47.4999 22.6997 56.3999 22.6997 65.2999 22.6997C63.2999 21.4997 58.5999 15.5997 55.9999 17.7997C55.7999 17.9997 48.4999 8.89973 43.6999 13.2997C39.4999 17.0997 37.5999 12.7997 32.7999 15.7997C27.4999 19.3997 35.9999 21.4997 38.5999 22.6997Z" fill="white"/>
<path d="M50.9 0H0V22.5L50.6 84L50.9 83.6L101.6 23.2V0H50.9ZM50.9 57.1L50.6 57.5L3.7 1.8H50.9H98.1L50.9 57.1Z" fill="#491213"/>
<path d="M50.6001 57.4998L50.9 57.0998L78.5 24.7998C71.6 25.6998 66.6 30.8998 59.9 29.7998C56.5 29.1998 56.4 27.2998 55.4 25.2998C54.7 23.7998 53.5 23.9998 51.9 23.3998C50.5 22.7998 49.6 21.6998 46.7001 22.2998C44.2001 22.8998 43.9001 26.7998 40.7001 26.5998C39 26.4998 38.9 24.0998 36.5 21.0998C30.2 13.4998 24.3 14.5998 20.3 21.5998L50.6001 57.4998Z" fill="#491213"/>
<path d="M46.5 70.9004L50.6 64.4004L54.6 70.9004L50.6 77.4004L46.5 70.9004Z" fill="#23A9E1"/>
<path d="M23.3 32.3004C23.8 32.9004 24.2001 33.6004 24.1001 34.4004C24.0001 35.0004 23.2 36.0004 23.8 36.2004C24.5 35.3004 25.3 34.3004 26 33.4004C25.4 33.2004 20.6 27.6004 20.6 26.9004C19.5 27.5004 18.5 28.1004 17.4 28.6004C17.6 29.3004 18.7 28.6004 19.3 28.6004C20.1 28.7004 20.7 29.2004 21.3 29.8004C19.6 31.2004 15.4 34.8004 14.9 34.9004C14.7 34.9004 13.8 34.3004 13.8 34.8004C13.8 35.1004 14.7 35.8004 14.8 36.0004C15.5 36.9004 16.3 37.8004 17 38.7004C17.6 38.4004 16.9001 38.0004 17.2001 37.5004C17.5001 37.1004 22.1 33.2004 23.3 32.3004Z" fill="white"/>
<path d="M18 25.3003C18.4 25.2003 18.6 25.7003 19 25.2003C18.2 24.2003 17.4 23.3003 16.6 22.3003C16.2 21.9003 15.8 21.4003 15.9 22.3003C16 22.9003 9.80005 28.0003 9.40005 28.1003C8.90005 28.3003 8.60005 27.7003 8.30005 28.2003C9.00005 29.1003 9.80005 29.9003 10.5 30.8003C10.7 31.1003 11.0001 31.4003 11.2001 31.7003C11.5001 32.0003 11.4 31.0003 11.4 31.1003C11.3 30.6003 11.9 30.2003 12.3 29.9003C13.8 28.6003 17.6 25.3003 18 25.3003Z" fill="white"/>
<path d="M9.19998 24.4C7.39998 24.9 5.49998 24.2 4.99998 22.4C4.49998 20.6 5.59998 18.6 7.09998 17.6C8.49998 16.6 10.7 16.6 11.5 18.4C11.8 19.2 11.7 20.1 11.4 20.9C11.2 21.4 10.8 21.9 11.5 22.2C12.4 21.1 13.2 20 14.1 18.9C13 18.3 12.6 17.2 11.8 16.3C10.9 15.2 9.69998 14.2 8.29998 14C5.39998 13.6 2.69998 16.6 2.49998 19.2C2.39998 20.7 2.89998 22 3.69998 23.2C4.49998 24.2 5.59998 24.8 6.09998 26C6.39998 26.1 8.79998 25 9.39998 24.7C9.29998 24.6 9.29998 24.5 9.19998 24.4C8.49998 24.6 9.19998 24.4 9.19998 24.4Z" fill="white"/>
<path d="M48.5 60.7996C47.3 59.9996 44.5 56.0996 43.9 55.4996C43.8 55.3996 43.7001 55.1996 43.6001 55.0996C43.6001 55.0996 43.3 55.2996 43.4 55.2996C43.2 55.3996 43.5 55.8996 43.3 56.1996C42.5 57.3996 37.5 61.1996 37.3 61.3996C36.7 61.7996 36.1 61.1996 35.8 61.6996C36.5 62.5996 38.6 65.1996 38.8 65.2996C39.3 65.3996 38.9 64.4996 39 64.2996C39.1 63.8996 41.6 61.8996 42.5 61.0996C42.8 60.7996 43.2 61.4996 43.4 61.7996C43.7 62.2996 43.9001 62.7996 43.7001 63.3996C43.6001 63.7996 43 64.2996 43.4 64.5996C44 63.8996 45.8 61.7996 46 61.5996C46.3 61.2996 45.4 61.5996 45.5 61.4996C45.1 61.6996 44.8 61.6996 44.4 61.4996C44.3 61.3996 43.3 60.3996 43.4 60.2996C43.8 59.8996 44.4 59.2996 44.9 59.1996C45.8 58.9996 46.5001 60.6996 46.6001 61.2996C46.7001 61.8996 46.7 62.4996 46.5 63.0996C46.4 63.4996 46 63.7996 46.5 63.9996C47.2 62.9996 47.9001 62.0996 48.6001 61.0996C48.8001 60.8996 48.6 60.7996 48.5 60.7996C48.4 60.6996 48.7 60.7996 48.5 60.7996Z" fill="white"/>
<path d="M38.3 56.6001C40.5 54.7001 40.8 51.5001 39.1 49.3001C37.2 46.8001 33.7 46.2001 31.3 48.2001C29.1 50.1001 28.8 53.2001 30.5 55.5001C32.5 58.2001 35.7 58.5001 38.3 56.6001C39.5 55.7001 38.2 56.7001 38.3 56.6001ZM37.8 51.9001C37.2 53.4001 35.6 55.0001 34.1 55.6001C32.3 56.3001 31 54.8001 31.7 53.0001C32.4 51.5001 33.9 49.9001 35.4 49.3001C37.3 48.6001 38.5 50.2001 37.8 51.9001C37.4 52.8001 37.9 51.7001 37.8 51.9001Z" fill="white"/>
<path d="M31.9 42.0004C32.4 42.1004 32.8 42.5004 33.2 42.0004C32.5 41.1004 31.7 40.2004 31 39.4004C30.4 39.7004 31 39.9004 30.8 40.4004C30.6 40.8004 28.2 41.2004 27.6 41.3004C27.8 40.7004 28.5 38.7004 28.8 38.5004C29.3 38.1004 29.7 38.9004 30.1 38.4004C29.2 37.3004 28.3 36.2004 27.4 35.1004C27.1 34.7004 26.8 34.1004 26.4 34.4004C26.4 34.4004 26.4 35.9004 26.3 36.1004C26.2 36.3004 25.4 39.7004 24.4 40.6004C23.9 41.0004 22.2 42.5004 21.7 42.7004C21.2 42.9004 20.9 42.1004 20.5 42.7004C21.3 43.7004 22.2 44.7004 23 45.7004C23.1 45.8004 23.6 46.6004 23.8 46.6004C24.3 46.7004 23.9 45.7004 23.9 45.5004C24.1 45.1004 26.4 42.8004 27.4 42.6004C28.6 42.4004 30.4 41.9004 31.9 42.0004C32.2 42.1004 31.5 42.0004 31.9 42.0004Z" fill="white"/>
<path d="M25.6 22.9C21.6 22.7 23.2 18.9 26 18.1C28.6 17.3 34.1 19.8 35.8 21.5C33 22.4 29.4 22.2 26.4 22.4C26.2 19.2 25.4 20.3 25.6 22.9Z" fill="#DC6243"/>
<path d="M26.6001 27.6996C24.6001 26.0996 25.2001 22.3996 28.4001 23.5996C32.4001 25.6996 27.5001 26.7996 26.6001 27.6996Z" fill="#DC6243"/>
<path d="M35.1 35.4002C26.5 35.3002 32.3 22.1002 35.2 22.9002C38.6 24.0002 38.2 35.5002 35.1 35.4002Z" fill="#DC6243"/>
<path d="M41.2001 31.1003C40.4001 33.6003 38.8001 34.1003 39.0001 31.0003C39.2001 27.5003 41.5001 28.3003 43.9001 27.0003C45.9001 25.9003 47.0001 21.8003 50.5001 24.2003C52.1001 25.3003 53.9001 24.4003 54.4001 26.0003C54.4001 25.9003 49.9001 36.3003 52.4001 36.3003C47.4001 36.3003 49.6001 30.4003 51.5001 26.4003C49.7001 27.3003 46.7001 33.1003 49.1001 34.0003C47.8001 35.7003 43.9001 37.9003 41.9001 36.3003C40.4001 35.2003 41.2001 33.1003 41.2001 31.1003Z" fill="#DC6243"/>
<path d="M45.3 40.6998C41.8 41.6998 37.2 39.4998 42.8 38.3998C46.3 37.6998 50 39.0998 45.3 40.6998C45.4 40.6998 45.2 40.6998 45.3 40.6998Z" fill="#DC6243"/>
<path d="M49.7 40.6003C49 38.9003 50.3 37.0003 52.4 38.4003C54.2 39.6003 51.5 41.5003 49.7 40.6003Z" fill="#DC6243"/>
<path d="M46.7 45.2C44.3 44.5 36.2 44.6 41.5 42.4C43.2 41.8 51.7 42.6 46.7 45.2Z" fill="#DC6243"/>
<path d="M49.9 44.8997C49.9 43.8997 49.4 42.1997 51.3 42.9997C53.5 43.7997 49.9 45.5997 49.9 44.8997C49.9 44.8997 49.9 44.6997 49.9 44.8997Z" fill="#DC6243"/>
<path d="M57.2001 48.4998C55.8001 47.2998 54.3001 47.1998 53.0001 48.4998C51.2001 45.1998 44.7001 46.2998 41.6001 45.7998C43.2001 49.8998 56.4001 50.6998 57.2001 48.4998Z" fill="#DC6243"/>
<path d="M55.2999 50.9998C52.0999 50.8998 48.6 50.3998 45.7 51.0998C47.6 51.5998 52.0999 52.8998 47.8999 53.9998C49.3999 56.1998 51.8999 55.9998 53.4999 54.0998C52.7999 53.7998 52.4999 53.3998 51.8999 52.9998C53.4999 52.6998 55.0999 51.7998 55.2999 50.9998Z" fill="#DC6243"/>
<path d="M58.9 47.0996C53.6 43.9996 54.9 41.6996 59.3 39.4996C61.6 38.3996 66.6 34.2996 68.7 35.5996C65.4 39.4996 62.1 43.2996 58.9 47.0996Z" fill="#DC6243"/>
<path d="M55.0999 39.8002C50.5999 35.2002 61.7999 35.6002 63.5999 34.0002C64.8999 34.4002 74.3999 25.7002 76.6999 26.3002C74.9999 28.2002 71.4999 34.4002 68.8999 34.4002C66.8999 34.4002 64.8999 34.1002 63.3999 35.5002C61.1999 37.6002 57.4999 38.6002 55.0999 39.8002Z" fill="#F49774"/>
<path d="M56.6 34.1996C54.1 35.4996 51.8 30.2996 56.1 30.7996C58.9 31.0996 61.8 30.5996 64.4 30.9996C62.4 33.2996 59.7 34.5996 56.6 34.1996Z" fill="#F4B1A4"/>
<path d="M69.2001 52.4996C69.4001 53.0996 69.5001 53.7996 69.4001 54.4996C69.3001 55.3996 68.4001 57.3996 67.2001 56.7996C66.0001 56.1996 65.0001 55.0996 64.0001 54.1996C64.8001 53.2996 65.5001 52.4996 66.9001 52.8996C67.3001 52.9996 67.6001 52.8996 67.2001 52.5996C66.8001 52.3996 64.1001 50.5996 63.9001 50.7996C63.6001 51.0996 64.4001 51.6996 64.1001 52.2996C63.9001 52.6996 63.5001 53.0996 63.2001 53.4996C62.5001 52.8996 61.3001 52.1996 62.1001 51.1996C62.6001 50.4996 63.4001 49.9996 64.2001 49.8996C64.8001 49.7996 66.0001 50.2996 66.2001 49.6996C65.1001 49.1996 64.0001 48.6996 62.9001 48.0996C63.1001 48.8996 59.6001 52.5996 58.8001 53.5996C58.7001 53.6996 58.1001 54.1996 58.1001 54.3996C58.1001 54.7996 58.7001 54.4996 58.8001 54.4996C59.3001 54.2996 65.6001 59.5996 65.8001 59.9996C65.9001 60.2996 65.6001 60.5996 65.8001 60.6996C65.8001 60.6996 66.0001 60.8996 66.1001 60.8996C66.5001 60.3996 70.6001 54.8996 71.5001 54.6996C70.7001 53.4996 69.9001 52.2996 69.1001 50.9996C68.5001 51.2996 69.1001 51.9996 69.2001 52.4996Z" fill="white"/>
<path d="M62.9999 59.2004C60.8999 57.9004 57.3999 60.5004 56.8999 60.7004C55.8999 61.2004 55.1 60.2004 55.6 59.2004C56.1 58.4004 56.9999 58.0004 57.8999 57.9004C58.1999 57.9004 59.1999 58.1004 59.3999 57.9004C59.4999 57.7004 59.5999 57.7004 59.3999 57.6004C58.4999 57.0004 57.6999 56.4004 56.7999 55.9004C56.5999 57.0004 55.4 57.6004 54.7 58.3004C53.9 59.2004 53.2 60.2004 53.2 61.5004C53.2 62.6004 53.8999 63.6004 54.8999 64.2004C55.9999 64.8004 57.2 64.3004 58.2 63.7004C58.8 63.3004 59.5 62.8004 60.1 62.5004C61.1 62.0004 62.4 62.4004 62.1 63.8004C61.8 64.9004 60.7 65.9004 59.7 66.1004C59.1 66.3004 58.3999 66.2004 57.7999 66.0004C57.3999 65.9004 56.8 65.3004 56.6 65.9004C57.8 66.7004 58.9 67.6004 60.1 68.4004C60.2 67.6004 60.6 67.3004 61.2 66.8004C61.9 66.2004 62.6 65.5004 63.2 64.7004C64.4 63.0004 64.7999 60.6004 62.9999 59.2004Z" fill="white"/>
<path d="M63 59.1999C64 59.7999 62.4 58.6999 63 59.1999V59.1999Z" fill="white"/>
<path d="M99.7001 19.6003C99.0001 20.3003 91.3001 17.3003 90.7001 16.8003C90.4001 16.7003 90.4001 15.5003 90.0001 16.0003C89.6001 16.5003 89.2001 17.0003 88.8001 17.5003C88.4001 18.0003 88.0001 18.5003 87.5001 19.0003C87.2001 19.3003 87.0001 19.5003 87.5001 19.7003C88.3001 19.3003 92.9001 27.0003 92.5001 28.2003C91.8001 28.6003 85.6001 23.1003 85.4001 22.8003C85.3001 22.7003 85.7001 21.8003 85.2001 21.9003C85.0001 21.9003 84.5001 22.8003 84.3001 23.0003C84.0001 23.4003 83.7001 23.7003 83.4001 24.1003C83.7001 24.6003 83.9001 24.1003 84.4001 24.1003C84.8001 24.2003 86.2001 25.4003 86.6001 25.8003C85.9001 25.8003 83.9001 25.9003 83.7001 25.9003C82.8001 26.0003 83.3001 25.2003 82.7001 25.0003C81.9001 25.9003 81.2001 26.8003 80.4001 27.8003C80.0001 28.3003 79.5001 28.9003 79.1001 29.4003C79.0001 29.5003 79.1001 29.4003 79.1001 29.5003C79.4001 29.8003 79.2001 29.7003 79.7001 29.5003C80.2001 29.3003 86.3001 34.4003 86.5001 34.7003C86.9001 35.1003 86.3001 35.7003 86.9001 35.9003C87.5001 35.2003 88.1001 34.4003 88.7001 33.7003C88.8001 33.6003 88.8001 33.6003 88.7001 33.5003C88.3001 33.1003 88.2001 33.7003 87.7001 33.7003C87.2001 33.6003 83.3001 30.3003 81.8001 29.1003C83.6001 29.0003 89.1001 28.8003 90.0001 28.8003C90.3001 28.8003 91.1001 29.7003 91.1001 30.0003C91.0001 30.4003 90.6001 30.6003 91.2001 30.8003C91.7001 30.2003 92.2001 29.7003 92.7001 29.1003L92.9001 28.8003C93.0001 28.7003 93.0001 28.7003 93.1001 28.5003L93.3001 28.3003C93.7001 27.8003 95.1001 26.3003 94.9001 26.2003C94.4001 25.8003 94.2001 26.7003 93.6001 26.1003C93.3001 25.9003 92.4001 24.3003 92.2001 23.9003C91.9001 23.5003 92.8001 23.0003 93.2001 22.8003C94.0001 22.3003 96.4001 21.6003 96.7001 23.1003C96.7001 23.4003 96.4001 23.6003 96.6001 23.8003C96.6001 23.8003 96.8001 24.0003 96.9001 24.0003C97.1001 23.8003 99.3001 21.2003 100.2 20.0003C99.9001 19.8003 99.8001 19.7003 99.7001 19.6003ZM92.3001 21.8003C92.4001 21.8003 92.5001 21.7003 92.3001 21.8003C92.0001 22.0003 91.6001 22.3003 91.3001 22.6003C90.8001 21.7003 90.3001 20.8003 89.7001 19.9003C90.9001 20.4003 92.1001 20.9003 93.2001 21.4003C93.0001 21.5003 92.7001 21.6003 92.3001 21.8003Z" fill="white"/>
<path d="M82.6 33.0004C80.2 31.0004 77 31.6004 75 33.8004C73.1 36.1004 73.3 39.5004 75.6 41.4004C77.9 43.3004 81.3 42.8004 83.2 40.6004C85.1 38.3004 85 34.9004 82.6 33.0004ZM82.3 39.6004C82.3 39.6004 82.3 39.7004 82.3 39.6004C81 40.9004 78.9 39.7004 77.8 38.9004C76.7 38.1004 74.7 36.3004 75.9 34.8004C77 33.5004 79 34.6004 80.1 35.3004C81.3 36.1004 83.5 37.9004 82.4 39.5004C82.5 39.4004 82.5 39.4004 82.3 39.6004Z" fill="white"/>
<path d="M82.6 32.9995C83.8 33.9995 82.3 32.7995 82.6 32.9995V32.9995Z" fill="white"/>
<path d="M82.3 39.6996C82.3 39.5996 82.3 39.5996 82.3 39.6996C82.4 39.5996 82.4 39.5996 82.4 39.5996C82.3 39.5996 82.3 39.6996 82.3 39.6996Z" fill="white"/>
<path d="M76 42.1002C76.1 42.2002 76.3 42.4002 76 42.1002C73.1 39.9002 69.7 40.5002 67.5 43.2002C66.5 44.4002 65.5 45.6002 64.5 46.8002C64.9 47.3002 65.3 46.7002 65.8 47.0002C66.2 47.3002 72 52.1002 72.1 52.4002C72.3 52.9002 71.8 52.9002 72.2 53.3002C72.4 53.4002 76.7 48.1002 77.1 47.1002C78 45.3002 77.4 43.4002 76 42.1002ZM74.7 48.9002C74.5 49.2002 74.7 49.0002 74 49.6002C73.7 49.9002 67.6 44.9002 67.8 44.7002C68.6 43.8002 70.4 43.1002 71.4 43.4002C73.6 43.9002 76.6 46.6002 74.7 48.9002Z" fill="white"/>
</symbol><symbol id="phone-icon" viewBox="0 0 58 58">
  <rect width="58" height="58" fill="#E6E6E6"/>
  <path d="M24.6 27.8C26 30.6 28.4 32.9 31.2 34.4L33.4 32.2C33.7 31.9 34.1 31.8 34.4 32C35.5 32.4 36.7 32.6 38 32.6C38.6 32.6 39 33 39 33.6V37C39 37.6 38.6 38 38 38C28.6 38 21 30.4 21 21C21 20.4 21.4 20 22 20H25.5C26.1 20 26.5 20.4 26.5 21C26.5 22.2 26.7 23.4 27.1 24.6C27.2 24.9 27.1 25.3 26.9 25.6L24.6 27.8Z"/>
</symbol><symbol id="replay-icon" viewBox="0 0 16 20">
  <path d="M8 4V0L3 5L8 10V6C11.3 6 14 8.7 14 12C14 15.3 11.3 18 8 18C4.7 18 2 15.3 2 12H0C0 16.4 3.6 20 8 20C12.4 20 16 16.4 16 12C16 7.6 12.4 4 8 4Z"/>
</symbol><symbol id="subtitles-icon" viewBox="0 0 32 20">
  <path d="M29 0H3C1.3 0 0 1.3 0 3V17C0 18.7 1.3 20 3 20H29C30.7 20 32 18.7 32 17V3C32 1.3 30.7 0 29 0ZM14.4 15.9C13.9 16 13.3 16 12.7 16C12 16 11.3 15.9 10.7 15.7C10.1 15.5 9.5 15.1 9.1 14.7C8.7 14.3 8.3 13.6 8 12.8C7.7 12 7.6 11.1 7.6 10C7.6 8.9 7.8 7.9 8.1 7.1C8.4 6.3 8.8 5.7 9.3 5.2C9.8 4.7 10.4 4.4 11 4.2C11.5 4.1 12.2 4 12.8 4C13.5 4 14 4 14.5 4.1C15 4.2 15.3 4.3 15.6 4.4L15.2 6.3C14.9 6.2 14.6 6.1 14.3 6C13.9 6 13.5 6 13 6C12.1 6 11.4 6.3 10.8 7C10.2 7.7 10 8.7 10 10C10 10.6 10.1 11.1 10.2 11.6C10.3 12.1 10.5 12.5 10.8 12.9C11.1 13.2 11.4 13.5 11.8 13.7C12.2 13.9 12.7 14 13.2 14C13.7 14 14.1 14 14.5 13.9C14.8 13.8 15.1 13.7 15.4 13.5L15.9 15.3C15.4 15.6 14.9 15.7 14.4 15.9ZM23.1 15.9C22.6 16 22 16 21.4 16C20.7 16 20 15.9 19.4 15.7C18.8 15.5 18.2 15.1 17.8 14.7C17.3 14.2 16.9 13.6 16.7 12.8C16.4 12 16.3 11.1 16.3 10C16.3 8.9 16.5 7.9 16.8 7.1C17.1 6.3 17.5 5.7 18 5.2C18.5 4.7 19.1 4.4 19.7 4.2C20.2 4.1 20.9 4 21.5 4C22.2 4 22.7 4 23.2 4.1C23.7 4.2 24 4.3 24.3 4.4L23.9 6.3C23.6 6.2 23.3 6.1 23 6C22.6 6 22.2 6 21.7 6C20.8 6 20.1 6.3 19.5 7C18.9 7.7 18.7 8.7 18.7 10C18.7 10.6 18.8 11.1 18.9 11.6C19 12.1 19.2 12.5 19.5 12.9C19.8 13.2 20.1 13.5 20.5 13.7C20.9 13.9 21.4 14 21.9 14C22.4 14 22.8 14 23.2 13.9C23.5 13.8 23.8 13.7 24.1 13.5L24.6 15.3C24.1 15.6 23.6 15.7 23.1 15.9Z"/>
</symbol><symbol id="twitter-icon" viewBox="0 0 18 15">
  <path d="M11.3 0.166728C13 -0.333272 14.4 0.366728 15 1.26673C15.7 1.06673 16.4 0.766728 17.1 0.566728C17.1 1.36673 16.6 2.06673 16.2 2.26673C16.9 2.46673 17.5 1.76673 17.5 1.76673C17.3 2.76673 16.5 3.46673 15.9 3.76673C15.7 10.3667 12.6 14.7667 5.5 14.5667C5 14.5667 5.6 14.5667 5 14.5667C4.6 14.5667 0.7 14.1667 0 12.7667C2.3 12.9667 4 12.3667 4.8 11.6667C3.8 11.3667 2 11.1667 1.7 8.76673C2.1 8.86673 2.3 8.96673 3 8.86673C1.8 8.06673 0.4 7.36673 0.5 5.16673C0.8 5.46673 1.6 5.66673 1.9 5.66673C1.2 5.46673 -0.1 2.36673 1 0.866728C2.9 2.66673 4.8 4.36673 8.4 4.56673C8.5 2.26673 9.5 0.766728 11.3 0.166728Z" fill="white"/>
</symbol><symbol id="youtube-icon" viewBox="0 0 20 14">
  <path d="M17.1 0H2.8C1.3 0 0 1.3 0 2.8V11.1C0 12.7 1.3 14 2.8 14H17.1C18.7 14 19.9 12.7 19.9 11.2V2.8C20 1.3 18.7 0 17.1 0ZM7 10.4V3.6L13.8 7L7 10.4Z" fill="white"/>
</symbol></svg>