<svg width="108" height="19" viewBox="0 0 108 19" fill="none" xmlns="http://www.w3.org/2000/svg">
<path d="M14.385 9.80445L14.2623 9.92675C13.4031 10.844 12.4211 11.272 11.5006 11.272L13.219 8.27572C14.3236 6.38009 13.2803 4.54562 11.5619 4.54562C10.1504 4.54562 9.04573 5.09596 8.00242 6.93044L7.08185 8.52032L6.3454 9.80445L6.22266 9.92675C4.8725 11.4555 3.5837 12.6785 2.78588 12.6785C2.35628 12.6785 2.17217 12.3727 2.60176 11.7001L6.52952 4.85136H8.00242L8.55476 3.99527H7.02048L8.73887 0.998962H6.89774L5.17935 3.99527H3.52233L2.97 4.85136H4.62701L0.944748 11.2109C0.146925 12.5562 0.699264 13.8403 2.17217 13.8403C3.21548 13.8403 4.4429 13.0454 5.54758 11.9447C5.54758 14.2683 8.80024 14.7575 10.7641 12.2504H11.1937C12.2984 12.2504 14.0168 11.5778 14.9374 10.4771C14.9374 10.1713 14.6305 9.92675 14.385 9.80445ZM10.4573 9.92675H10.3959C9.78218 9.92675 9.29122 10.4159 9.29122 11.0274C9.29122 11.272 9.35258 11.4555 9.47532 11.6389V11.7001C8.61613 13.1677 6.52952 12.9231 7.57282 10.9663L8.98436 8.58147L9.84355 7.11388C11.1323 4.91251 12.9121 5.7686 11.8074 7.66423L10.4573 9.92675Z" fill="#766458"/>
<path d="M39.854 9.80421L39.7312 9.9265C38.3811 11.4552 36.7241 12.6782 35.4353 12.6782C34.3306 12.6782 33.6555 11.9444 34.4533 10.4768L34.6374 10.1711C35.8035 10.6603 38.0742 10.4157 39.4244 8.03088L39.6699 7.60284C40.6518 5.89066 39.7312 4.66767 38.197 4.66767C36.7241 4.66767 35.558 5.46261 34.7602 6.80789L32.9804 9.86535L32.8577 9.98766C31.5075 11.5164 30.2187 12.7394 29.4209 12.7394C28.9913 12.7394 28.8072 12.4336 29.2368 11.761L31.8757 7.11364C32.6736 5.70721 31.9371 4.72882 30.8938 4.72882C30.096 4.72882 29.2368 5.15687 28.3162 6.13525L31.262 1.05987H29.4209L24.3271 9.80421L24.2044 9.9265C22.8542 11.4552 21.5654 12.6782 20.7676 12.6782C20.338 12.6782 20.1539 12.3725 20.5835 11.6998L24.5112 4.85112H25.9841L26.5365 3.99503H25.0022L26.7206 0.998718H24.8794L23.1611 3.99503H21.504L20.9517 4.85112H22.6087L18.9265 11.2106C18.1286 12.5559 18.681 13.8401 20.1539 13.8401C20.8903 13.8401 21.6882 13.4732 22.486 12.8617L21.995 13.6566H23.8361L26.5978 8.82582C29.4209 5.27917 30.6483 5.76836 29.9119 7.11364L27.5184 11.2718C26.7206 12.6171 27.2729 13.9012 28.7458 13.9012C29.8505 13.9012 31.0779 13.0451 32.1826 11.9444C32.244 13.1063 33.2259 13.9012 34.6988 13.9012C36.7854 13.9012 38.872 12.3113 40.3449 10.538C40.4063 10.1711 40.0995 9.92651 39.854 9.80421ZM36.3558 7.23594C37.3991 5.40146 39.3016 5.70721 38.197 7.60284L37.9515 8.03088C37.0923 9.49846 35.8649 9.49846 35.1898 9.25386L36.3558 7.23594Z" fill="#766458"/>
<path d="M106.81 9.80442L106.687 9.92672C106.012 10.7217 105.214 11.3943 104.478 11.9446C105.091 10.1713 104.907 7.5419 106.073 5.15708L104.723 4.42329C103.987 5.46283 102.33 7.84765 100.611 9.80442L100.488 9.92672C99.1383 11.4554 97.8495 12.6784 97.0517 12.6784C96.6221 12.6784 96.4379 12.3727 96.8675 11.7L100.795 4.85134H98.9542L95.7015 10.5382C94.29 11.8223 93.2466 12.495 92.8784 12.3727C92.4488 12.1892 92.8784 11.5166 93.1239 11.0886L96.6834 4.85134H94.8423L91.9579 9.80442L91.8351 9.92672C90.9759 10.844 89.994 11.272 89.0734 11.272L90.7918 8.27569C91.8965 6.38007 90.8532 4.54559 89.1348 4.54559C87.7233 4.54559 86.6186 5.09593 85.5753 6.93041L84.6547 8.52029L83.9183 9.80442L83.7955 9.92672C82.4453 11.4554 80.7883 12.6784 79.4995 12.6784C78.3949 12.6784 77.7198 11.9446 78.5176 10.4771L78.7017 10.1713C79.8678 10.6605 82.1385 10.4159 83.4887 8.03109L83.7341 7.60305C84.7161 5.89087 83.7955 4.66789 82.2612 4.66789C80.7883 4.66789 79.6223 5.46283 78.8245 6.80811L77.0447 9.86557L76.9219 9.98787C75.3877 11.7612 74.0989 12.8619 72.626 13.4734L76.7378 6.44122H75.6332C75.6332 5.70742 74.8353 4.66789 73.7307 4.66789C72.7487 4.66789 71.3372 5.46283 70.6007 6.80811L68.821 9.86557L68.6982 9.98787C67.3481 11.5166 66.0593 12.7396 65.2615 12.7396C64.8319 12.7396 64.6477 12.4338 65.0773 11.7612L66.9185 8.58144C67.5322 7.48075 67.2253 6.80811 66.673 6.07432L65.6297 4.85134C65.3842 4.54559 65.3842 4.11755 65.7524 3.8118L64.7705 2.77226C63.7272 3.6895 63.6658 4.72904 64.2795 5.58513L64.4636 5.76857C63.6658 6.93041 62.5611 8.45914 61.3337 9.86557L61.211 9.98787C60.3518 10.9051 59.3698 11.3332 58.4493 11.3332L60.1677 8.33684C61.2723 6.44121 60.229 4.60674 58.5106 4.60674C57.0991 4.60674 55.9944 5.15708 54.9511 6.99156L54.0306 8.58144L53.2941 9.86557L53.1714 9.98787C51.6371 11.7612 50.3483 12.8619 48.8754 13.4734L52.9872 6.44122H51.8826C51.8826 5.70742 51.0847 4.66789 49.9801 4.66789C48.9981 4.66789 47.5866 5.46283 46.8501 6.80811L44.2726 11.272C43.4747 12.6173 44.0271 13.9014 45.5 13.9014C45.9909 13.9014 46.6047 13.6568 47.2797 13.2899L46.7888 14.146C44.3339 14.8798 42.7383 15.9193 42.7383 17.2646C42.7383 19.038 45.4386 19.4048 46.7888 17.1423L48.2003 14.7575C49.6732 14.3295 51.0847 13.4122 52.619 12.0058C52.619 14.3295 55.8717 14.8187 57.8356 12.3115H58.2652C59.3698 12.3115 61.0882 11.6389 62.0088 10.5382C62.868 9.49867 63.6044 8.58144 65.0773 6.62466L65.3228 6.93041C65.5683 7.23616 65.6297 7.60305 65.4456 7.96995L63.4817 11.3332C62.6839 12.6784 63.2362 13.9626 64.7091 13.9626C65.6297 13.9626 66.673 13.3511 67.6549 12.495C67.6549 13.3511 68.2073 13.9626 69.2506 13.9626C69.7415 13.9626 70.3553 13.718 71.0303 13.3511L70.6007 14.0849C68.1459 14.8187 66.5502 15.8582 66.5502 17.2035C66.5502 18.9768 69.2506 19.3437 70.6007 17.0812L72.0123 14.6964C73.4852 14.2072 74.9581 13.3511 76.4924 11.8835C76.5537 13.0453 77.4743 13.8403 79.0086 13.8403C80.4815 13.8403 82.0158 12.9842 83.2432 11.8835C83.1818 14.2683 86.4958 14.7575 88.4597 12.2504H88.8893C89.4416 12.2504 90.2395 12.0669 90.9146 11.7C90.4236 12.9842 90.8532 13.8403 91.8965 13.8403C92.8784 13.8403 94.0445 12.923 94.9037 12.0669C94.7196 13.0453 95.3333 13.8403 96.4993 13.8403C98.0336 13.8403 99.752 12.2504 101.286 10.4771C102.33 9.25408 103.25 7.96994 103.925 7.11386C103.189 9.00948 103.618 12.4338 101.839 12.4338C101.225 12.4338 100.979 11.7612 100.979 11.7612L99.8134 12.3727C99.8134 12.3727 100.12 13.8403 101.839 13.8403C102.023 13.8403 102.145 13.8403 102.33 13.7791H102.391C104.293 13.5345 106.135 12.0669 107.485 10.4771C107.423 10.1713 107.117 9.86557 106.81 9.80442ZM80.4815 7.23616C81.5248 5.40168 83.4273 5.70743 82.3226 7.60305L82.0771 8.03109C81.2179 9.49867 79.9905 9.49867 79.3154 9.25408L80.4815 7.23616ZM45.3772 16.7754C45.009 17.4481 44.3953 17.3869 44.3953 16.8366C44.3953 16.3474 44.8249 15.797 46.2364 15.2467L45.3772 16.7754ZM46.2364 12.6784C45.8068 12.6784 45.6227 12.3727 46.0523 11.7L48.6299 7.23616C49.6118 5.52398 51.5757 5.95202 50.6551 7.60305L49.2436 10.049C48.1389 11.8223 46.9729 12.6784 46.2364 12.6784ZM57.5287 9.92672H57.4673C56.8536 9.92672 56.3627 10.4159 56.3627 11.0274C56.3627 11.272 56.424 11.4555 56.5468 11.6389V11.7C55.6876 13.1676 53.601 12.923 54.6443 10.9663L56.0558 8.58144L56.915 7.11386C58.2038 4.91248 59.9835 5.76857 58.8789 7.6642L57.5287 9.92672ZM69.0665 16.7754C68.6982 17.4481 68.0845 17.3869 68.0845 16.8366C68.0845 16.3474 68.5141 15.797 69.9256 15.2467L69.0665 16.7754ZM69.9256 12.6784C69.4961 12.6784 69.3119 12.3727 69.7415 11.7L72.3191 7.23616C73.3011 5.52398 75.2649 5.95202 74.3444 7.60305L72.9328 10.049C71.8281 11.8223 70.6621 12.6784 69.9256 12.6784ZM88.0301 9.92672H87.9687C87.355 9.92672 86.8641 10.4159 86.8641 11.0274C86.8641 11.272 86.9254 11.4555 87.0482 11.6389V11.7C86.189 13.1676 84.1024 12.923 85.1457 10.9663L86.5572 8.58144L87.4164 7.11386C88.7052 4.91248 90.485 5.76857 89.3803 7.6642L88.0301 9.92672Z" fill="#766458"/>
</svg>
