<svg width="182" height="97" viewBox="0 0 182 97" fill="none" xmlns="http://www.w3.org/2000/svg">
<path d="M181.226 0H0.645142L78.5484 90.5C85.4193 98.4 96.5484 98.4 103.419 90.5L181.226 0Z" fill="#81B3D3"/>
<path d="M42.4517 0.7L90.4516 59.1L138.161 1.1L42.4517 0.7Z" fill="#23A9E1"/>
<path d="M118.71 17.3C113.774 17.3 108.935 17.4 104 17.4C109.806 10.5 112.419 11.2 118.71 17.3Z" fill="white"/>
<path d="M78.8387 22.7C87.4516 22.7 96.0645 22.7 104.677 22.7C102.742 21.5 98.1936 15.6 95.6774 17.8C95.4839 18 88.4194 8.9 83.7742 13.3C79.7097 17.1 77.871 12.8 73.2258 15.8C68.0968 19.4 76.3226 21.5 78.8387 22.7Z" fill="white"/>
<path d="M90.7419 0H41.4839V22.5L90.4516 84L90.7419 83.6L139.806 23.2V0H90.7419ZM53.7742 1.8H59.0968V19L53.7742 12.5V1.8ZM53 11.6L48.1613 5.7V1.8H53V11.6ZM71.6774 8.9L66.1613 1.8H71.6774V8.9ZM65.2903 12.7L59.871 1.8H65.2903V12.7ZM59.7742 3.4L65.0968 14.1C62.3871 16.2 60.5484 18.1 59.7742 19V3.4ZM66.0645 2.9L71.4839 9.8C70.4193 10.4 69.3548 11.1 68.4839 11.7C67.6129 12.3 66.8387 12.9 66.0645 13.5V2.9ZM72.4516 2.7L77.0968 6.9C75.4516 7.6 73.9032 8.4 72.4516 9.2V2.7ZM77.871 6.6L72.6452 1.8H78.4516V6.4C78.1613 6.4 78.0645 6.5 77.871 6.6ZM96.3548 1.8H101.194L96.3548 4.2V1.8ZM90.7419 1.8H95L90.7419 3.9V1.8ZM89.8709 3.8L85.8064 1.8H89.8709V3.8ZM84.5484 4.3L79.6129 1.8H84.5484V4.3ZM79.129 2.4L83.6774 4.7C82.129 5.1 80.5806 5.5 79.129 6V2.4ZM85.3226 2.4L88.6129 4C87.4516 4.1 86.3871 4.2 85.2258 4.4V2.4H85.3226ZM95.3871 2.5V4.4C94.3226 4.2 93.258 4.1 92.0968 4L95.3871 2.5ZM101.677 2.4V6.1C100.226 5.6 98.6774 5.1 97.0322 4.7L101.677 2.4ZM102.355 1.8H108.064L102.839 6.6C102.645 6.5 102.548 6.5 102.355 6.4V1.8ZM115.516 1.8H120.935L115.516 12.7V1.8ZM109.129 1.8H114.645L109.129 8.8V1.8ZM108.355 2.7V9.2C106.903 8.4 105.355 7.6 103.71 6.9L108.355 2.7ZM114.742 2.9V13.4C114.064 12.9 113.29 12.4 112.516 11.8C111.548 11.1 110.387 10.4 109.226 9.7L114.742 2.9ZM120.935 3.4V18.6C119.871 17.6 118.129 15.9 115.613 14L120.935 3.4ZM121.71 19.4V1.8H127.032V13.2L121.71 19.4C121.806 19.5 121.71 19.5 121.71 19.4ZM127.806 1.8H132.645V6.5L127.806 12.3V1.8ZM47.4839 1.8V4.7L45.0645 1.8H47.4839ZM59.871 20L59.9677 20.1C59.9677 20.1 63.4516 16.2 68.871 12.5C74 9 81.7419 4.9 90.4516 5C99.0645 5 107 9.2 112.032 12.7C117.452 16.4 121.032 20.2 121.129 20.3L117.355 24.8C110.677 25.7 105.839 30.9 99.3548 29.8C96.0645 29.2 95.9677 27.3 95 25.3C94.3226 23.8 93.1613 24 91.6129 23.4C90.258 22.8 89.3871 21.7 86.5806 22.3C84.1613 22.9 83.871 26.8 80.7742 26.6C79.129 26.5 79.0322 24.1 76.7097 21.1C70.6129 13.5 64.9032 14.6 61.0323 21.6L90.3548 57.5L59.871 20ZM133.323 5.5V1.8H136.419L133.323 5.5Z" fill="#491213"/>
<path d="M86.4839 70.9L90.4516 64.4L94.3226 70.9L90.4516 77.4L86.4839 70.9Z" fill="#23A9E1"/>
<path d="M64.0322 32.3C64.5161 32.9 64.9032 33.6 64.8064 34.4C64.7097 35 63.9355 36 64.5161 36.2C65.1935 35.3 65.9677 34.3 66.6451 33.4C66.0645 33.2 61.4193 27.6 61.4193 26.9C60.3548 27.5 59.387 28.1 58.3225 28.6C58.5161 29.3 59.5806 28.6 60.1612 28.6C60.9354 28.7 61.5161 29.2 62.0967 29.8C60.4516 31.2 56.387 34.8 55.9031 34.9C55.7096 34.9 54.8386 34.3 54.8386 34.8C54.8386 35.1 55.7096 35.8 55.8064 36C56.4838 36.9 57.258 37.8 57.9354 38.7C58.5161 38.4 57.8386 38 58.129 37.5C58.4193 37.1 62.8709 33.2 64.0322 32.3Z" fill="white"/>
<path d="M58.9032 25.3C59.2903 25.2 59.4839 25.7 59.871 25.2C59.0968 24.2 58.3226 23.3 57.5484 22.3C57.1613 21.9 56.7742 21.4 56.871 22.3C56.9677 22.9 50.9677 28 50.5806 28.1C50.0968 28.3 49.8064 27.7 49.5161 28.2C50.1935 29.1 50.9677 29.9 51.6452 30.8C51.8387 31.1 52.129 31.4 52.3226 31.7C52.6129 32 52.5161 31 52.5161 31.1C52.4193 30.6 53 30.2 53.3871 29.9C54.8387 28.6 58.5161 25.3 58.9032 25.3Z" fill="white"/>
<path d="M50.387 24.4C48.6451 24.9 46.8064 24.2 46.3225 22.4C45.8386 20.6 46.9031 18.6 48.3548 17.6C49.7096 16.6 51.8386 16.6 52.6128 18.4C52.9032 19.2 52.8064 20.1 52.5161 20.9C52.3225 21.4 51.9354 21.9 52.6128 22.2C53.4838 21.1 54.258 20 55.129 18.9C54.0644 18.3 53.6774 17.2 52.9032 16.3C52.0322 15.2 50.8709 14.2 49.5161 14C46.7096 13.6 44.0967 16.6 43.9031 19.2C43.8064 20.7 44.2902 22 45.0644 23.2C45.8386 24.2 46.9031 24.8 47.387 26C47.6773 26.1 49.9999 25 50.5806 24.7C50.4838 24.6 50.4838 24.5 50.387 24.4C49.7096 24.6 50.387 24.4 50.387 24.4Z" fill="white"/>
<path d="M88.4192 60.8C87.2579 60 84.5483 56.1 83.9676 55.5C83.8708 55.4 83.7741 55.2 83.6773 55.1C83.6773 55.1 83.387 55.3 83.4837 55.3C83.2902 55.4 83.5805 55.9 83.387 56.2C82.6128 57.4 77.7741 61.2 77.5805 61.4C76.9999 61.8 76.4192 61.2 76.1289 61.7C76.8063 62.6 78.8386 65.2 79.0321 65.3C79.516 65.4 79.1289 64.5 79.2257 64.3C79.3225 63.9 81.7418 61.9 82.6128 61.1C82.9031 60.8 83.2902 61.5 83.4837 61.8C83.7741 62.3 83.9676 62.8 83.7741 63.4C83.6773 63.8 83.0966 64.3 83.4837 64.6C84.0644 63.9 85.8063 61.8 85.9999 61.6C86.2902 61.3 85.4192 61.6 85.516 61.5C85.1289 61.7 84.8386 61.7 84.4515 61.5C84.3547 61.4 83.387 60.4 83.4837 60.3C83.8708 59.9 84.4515 59.3 84.9354 59.2C85.8063 59 86.4837 60.7 86.5805 61.3C86.6773 61.9 86.6773 62.5 86.4837 63.1C86.387 63.5 85.9999 63.8 86.4837 64C87.1612 63 87.8386 62.1 88.516 61.1C88.7096 60.9 88.516 60.8 88.4192 60.8C88.3224 60.7 88.6128 60.8 88.4192 60.8Z" fill="white"/>
<path d="M78.5483 56.6C80.6773 54.7 80.9677 51.5 79.3225 49.3C77.4838 46.8 74.0967 46.2 71.7741 48.2C69.6451 50.1 69.3548 53.2 70.9999 55.5C72.9354 58.2 76.0322 58.5 78.5483 56.6C79.7096 55.7 78.4515 56.7 78.5483 56.6ZM78.0644 51.9C77.4838 53.4 75.9354 55 74.4838 55.6C72.7419 56.3 71.4838 54.8 72.1612 53C72.8387 51.5 74.2903 49.9 75.7419 49.3C77.5806 48.6 78.7419 50.2 78.0644 51.9C77.6773 52.8 78.1612 51.7 78.0644 51.9Z" fill="white"/>
<path d="M72.3548 42C72.8387 42.1 73.2258 42.5 73.6129 42C72.9354 41.1 72.1612 40.2 71.4838 39.4C70.9032 39.7 71.4838 39.9 71.2903 40.4C71.0967 40.8 68.7741 41.2 68.1935 41.3C68.387 40.7 69.0645 38.7 69.3548 38.5C69.8387 38.1 70.2258 38.9 70.6129 38.4C69.7419 37.3 68.8709 36.2 67.9999 35.1C67.7096 34.7 67.4193 34.1 67.0322 34.4C67.0322 34.4 67.0322 35.9 66.9354 36.1C66.8386 36.3 66.0645 39.7 65.0967 40.6C64.6128 41 62.9677 42.5 62.4838 42.7C61.9999 42.9 61.7096 42.1 61.3225 42.7C62.0967 43.7 62.9677 44.7 63.7419 45.7C63.8386 45.8 64.3225 46.6 64.5161 46.6C64.9999 46.7 64.6128 45.7 64.6128 45.5C64.8064 45.1 67.0322 42.8 67.9999 42.6C69.1612 42.4 70.9032 41.9 72.3548 42C72.6451 42.1 71.9677 42 72.3548 42Z" fill="white"/>
<path d="M66.2581 22.9C62.3871 22.7 63.9355 18.9 66.6452 18.1C69.1613 17.3 74.4839 19.8 76.1291 21.5C73.4194 22.4 69.9355 22.2 67.0323 22.4C66.8388 19.2 66.0646 20.3 66.2581 22.9Z" fill="#DC6243"/>
<path d="M75.4516 35.4C67.1291 35.3 72.7419 22.1 75.5484 22.9C78.8387 24 78.4516 35.5 75.4516 35.4Z" fill="#DC6243"/>
<path d="M81.3548 31.1C80.5807 33.6 79.0323 34.1 79.2258 31C79.4194 27.5 81.6452 28.3 83.9677 27C85.9032 25.9 86.9677 21.8 90.3548 24.2C91.9032 25.3 93.6451 24.4 94.129 26C94.129 25.9 89.7742 36.3 92.1935 36.3C87.3548 36.3 89.4838 30.4 91.3225 26.4C89.5806 27.3 86.6774 33.1 89 34C87.7419 35.7 83.9677 37.9 82.0323 36.3C80.5807 35.2 81.3548 33.1 81.3548 31.1Z" fill="#DC6243"/>
<path d="M85.3226 40.7C81.9355 41.7 77.484 39.5 82.9033 38.4C86.2904 37.7 89.871 39.1 85.3226 40.7C85.4194 40.7 85.2258 40.7 85.3226 40.7Z" fill="#DC6243"/>
<path d="M89.5806 40.6C88.9032 38.9 90.1612 37 92.1935 38.4C93.9355 39.6 91.3226 41.5 89.5806 40.6Z" fill="#DC6243"/>
<path d="M86.6774 45.2C84.3549 44.5 76.5161 44.6 81.6452 42.4C83.2903 41.8 91.5162 42.6 86.6774 45.2Z" fill="#DC6243"/>
<path d="M96.8387 48.5C95.4838 47.3 94.0322 47.2 92.7742 48.5C91.0322 45.2 84.7419 46.3 81.7419 45.8C83.2903 49.9 96.0645 50.7 96.8387 48.5Z" fill="#DC6243"/>
<path d="M95 51C91.9032 50.9 88.5162 50.4 85.7097 51.1C87.5484 51.6 91.9032 52.9 87.8387 54C89.2903 56.2 91.7097 56 93.2581 54.1C92.5807 53.8 92.2903 53.4 91.7097 53C93.2581 52.7 94.8065 51.8 95 51Z" fill="#DC6243"/>
<path d="M98.4839 47.1C93.3548 44 94.6129 41.7 98.871 39.5C101.097 38.4 105.936 34.3 107.968 35.6C104.774 39.5 101.581 43.3 98.4839 47.1Z" fill="#DC6243"/>
<path d="M94.8065 39.8C90.4517 35.2 101.29 35.6 103.032 34C104.29 34.4 113.484 25.7 115.71 26.3C114.065 28.2 110.678 34.4 108.161 34.4C106.226 34.4 104.29 34.1 102.839 35.5C100.71 37.6 97.1291 38.6 94.8065 39.8Z" fill="#F49774"/>
<path d="M96.258 34.2C93.8387 35.5 91.6129 30.3 95.7742 30.8C98.4838 31.1 101.29 30.6 103.806 31C101.871 33.3 99.258 34.6 96.258 34.2Z" fill="#F4B1A4"/>
<path d="M108.452 52.5C108.645 53.1 108.742 53.8 108.645 54.5C108.548 55.4 107.677 57.4 106.516 56.8C105.355 56.2 104.387 55.1 103.419 54.2C104.194 53.3 104.871 52.5 106.226 52.9C106.613 53 106.903 52.9 106.516 52.6C106.129 52.4 103.516 50.6 103.323 50.8C103.032 51.1 103.807 51.7 103.516 52.3C103.323 52.7 102.936 53.1 102.645 53.5C101.968 52.9 100.806 52.2 101.581 51.2C102.065 50.5 102.839 50 103.613 49.9C104.194 49.8 105.355 50.3 105.548 49.7C104.484 49.2 103.419 48.7 102.355 48.1C102.548 48.9 99.1613 52.6 98.3871 53.6C98.2904 53.7 97.7097 54.2 97.7097 54.4C97.7097 54.8 98.2904 54.5 98.3871 54.5C98.871 54.3 104.968 59.6 105.161 60C105.258 60.3 104.968 60.6 105.161 60.7C105.161 60.7 105.355 60.9 105.452 60.9C105.839 60.4 109.807 54.9 110.677 54.7C109.903 53.5 109.129 52.3 108.355 51C107.774 51.3 108.355 52 108.452 52.5Z" fill="white"/>
<path d="M102.452 59.2C100.419 57.9 97.0323 60.5 96.5484 60.7C95.5807 61.2 94.8065 60.2 95.2904 59.2C95.7742 58.4 96.6452 58 97.5161 57.9C97.8065 57.9 98.7742 58.1 98.9678 57.9C99.0645 57.7 99.1613 57.7 98.9678 57.6C98.0968 57 97.3226 56.4 96.4516 55.9C96.2581 57 95.0968 57.6 94.4194 58.3C93.6452 59.2 92.9678 60.2 92.9678 61.5C92.9678 62.6 93.6452 63.6 94.6129 64.2C95.6774 64.8 96.8387 64.3 97.8065 63.7C98.3871 63.3 99.0645 62.8 99.6452 62.5C100.613 62 101.871 62.4 101.581 63.8C101.29 64.9 100.226 65.9 99.2581 66.1C98.6774 66.3 98 66.2 97.4194 66C97.0323 65.9 96.4516 65.3 96.2581 65.9C97.4194 66.7 98.4839 67.6 99.6452 68.4C99.742 67.6 100.129 67.3 100.71 66.8C101.387 66.2 102.065 65.5 102.645 64.7C103.806 63 104.194 60.6 102.452 59.2Z" fill="white"/>
<path d="M102.452 59.2C103.419 59.8 101.871 58.7 102.452 59.2V59.2Z" fill="white"/>
<path d="M137.968 19.6C137.29 20.3 129.839 17.3 129.258 16.8C128.968 16.7 128.968 15.5 128.581 16C128.194 16.5 127.806 17 127.419 17.5C127.032 18 126.645 18.5 126.161 19C125.871 19.3 125.677 19.5 126.161 19.7C126.936 19.3 131.387 27 131 28.2C130.323 28.6 124.323 23.1 124.129 22.8C124.032 22.7 124.419 21.8 123.936 21.9C123.742 21.9 123.258 22.8 123.065 23C122.774 23.4 122.484 23.7 122.194 24.1C122.484 24.6 122.677 24.1 123.161 24.1C123.548 24.2 124.903 25.4 125.29 25.8C124.613 25.8 122.677 25.9 122.484 25.9C121.613 26 122.097 25.2 121.516 25C120.742 25.9 120.065 26.8 119.29 27.8C118.903 28.3 118.419 28.9 118.032 29.4C117.935 29.5 118.032 29.4 118.032 29.5C118.323 29.8 118.129 29.7 118.613 29.5C119.097 29.3 125 34.4 125.194 34.7C125.581 35.1 125 35.7 125.581 35.9C126.161 35.2 126.742 34.4 127.323 33.7C127.419 33.6 127.419 33.6 127.323 33.5C126.936 33.1 126.839 33.7 126.355 33.7C125.871 33.6 122.097 30.3 120.645 29.1C122.387 29 127.71 28.8 128.581 28.8C128.871 28.8 129.645 29.7 129.645 30C129.548 30.4 129.161 30.6 129.742 30.8C130.226 30.2 130.71 29.7 131.194 29.1L131.387 28.8C131.484 28.7 131.484 28.7 131.581 28.5L131.774 28.3C132.161 27.8 133.516 26.3 133.323 26.2C132.839 25.8 132.645 26.7 132.065 26.1C131.774 25.9 130.903 24.3 130.71 23.9C130.419 23.5 131.29 23 131.677 22.8C132.452 22.3 134.774 21.6 135.065 23.1C135.065 23.4 134.774 23.6 134.968 23.8C134.968 23.8 135.161 24 135.258 24C135.452 23.8 137.581 21.2 138.452 20C138.161 19.8 138.065 19.7 137.968 19.6ZM130.806 21.8C130.903 21.8 131 21.7 130.806 21.8C130.516 22 130.129 22.3 129.839 22.6C129.355 21.7 128.871 20.8 128.29 19.9C129.452 20.4 130.613 20.9 131.677 21.4C131.484 21.5 131.194 21.6 130.806 21.8Z" fill="white"/>
<path d="M121.419 33C119.097 31 116 31.6 114.065 33.8C112.226 36.1 112.419 39.5 114.645 41.4C116.871 43.3 120.161 42.8 122 40.6C123.839 38.3 123.742 34.9 121.419 33ZM121.129 39.6C121.129 39.6 121.129 39.7 121.129 39.6C119.871 40.9 117.839 39.7 116.774 38.9C115.71 38.1 113.774 36.3 114.936 34.8C116 33.5 117.936 34.6 119 35.3C120.161 36.1 122.29 37.9 121.226 39.5C121.323 39.4 121.323 39.4 121.129 39.6Z" fill="white"/>
<path d="M121.419 33C122.581 34 121.129 32.8 121.419 33V33Z" fill="white"/>
<path d="M121.129 39.7C121.129 39.6 121.129 39.6 121.129 39.7C121.226 39.6 121.226 39.6 121.226 39.6C121.129 39.6 121.129 39.7 121.129 39.7Z" fill="white"/>
<path d="M115.032 42.1C115.129 42.2 115.323 42.4 115.032 42.1C112.226 39.9 108.936 40.5 106.807 43.2C105.839 44.4 104.871 45.6 103.903 46.8C104.29 47.3 104.678 46.7 105.161 47C105.548 47.3 111.161 52.1 111.258 52.4C111.452 52.9 110.968 52.9 111.355 53.3C111.548 53.4 115.71 48.1 116.097 47.1C116.968 45.3 116.387 43.4 115.032 42.1ZM113.774 48.9C113.581 49.2 113.774 49 113.097 49.6C112.807 49.9 106.903 44.9 107.097 44.7C107.871 43.8 109.613 43.1 110.581 43.4C112.71 43.9 115.613 46.6 113.774 48.9Z" fill="white"/>
</svg>
