<svg style="display:none" xmlns="http://www.w3.org/2000/svg">
  <symbol id="burger-menu-icon" viewBox="0 0 23 22" fill="none" xmlns="http://www.w3.org/2000/svg">
    <path d="M22.9 5.72205e-06H0V4.00001H22.9V5.72205e-06Z" fill="#81B3D2"/>
    <path d="M22.9 9.00001H0V13H22.9V9.00001Z" fill="#81B3D2"/>
    <path d="M22.9 18H0V22H22.9V18Z" fill="#81B3D2"/>
  </symbol>

  <symbol id="close-icon" viewBox="0 0 23 23" fill="none" xmlns="http://www.w3.org/2000/svg">
    <path d="M22.2 2.8L19.4 0L11.1 8.3L2.8 0L0 2.8L8.3 11.1L0 19.4L2.8 22.2L11.1 13.9L19.4 22.2L22.2 19.4L13.9 11.1L22.2 2.8Z" fill="white"/>
  </symbol>

  <symbol id="house-icon" viewBox="0 0 75 72" fill="none" xmlns="http://www.w3.org/2000/svg">
    <path d="M29.6185 64.9389H45.6827V41.1709H29.6185V64.9389ZM42.7711 62.0549H32.5301V44.0549H42.6707V62.0549H42.7711Z" fill="#81B3D2"/>
    <path d="M72.8916 39.1823L75 37.0939L65.0602 27.2486V0.39779H51.2048V13.5249L37.4498 0L0 37.1934L2.10843 39.2818L9.93976 31.5249V69.116H6.0241V72H70.1807V69.116H65.0602V31.4254L72.8916 39.1823ZM54.1165 3.38122H62.0482V24.3646L54.1165 16.5083V3.38122ZM62.1486 69.0166H12.9518V28.5414L37.4498 4.1768L62.0482 28.5414V69.0166H62.1486Z" fill="#81B3D2"/>
    <path d="M29.9197 27.0491C29.9197 31.3253 33.4338 34.806 37.6507 34.806C41.9679 34.806 45.482 31.3253 45.482 27.0491C45.482 22.7728 41.9679 19.3916 37.6507 19.3916C33.3334 19.3916 29.9197 22.7728 29.9197 27.0491ZM37.6507 22.0767C40.3615 22.0767 42.6707 24.2645 42.6707 27.0491C42.6707 29.7341 40.4619 32.0214 37.6507 32.0214C34.9398 32.0214 32.6306 29.8336 32.6306 27.0491C32.6306 24.364 34.9398 22.0767 37.6507 22.0767Z" fill="#81B3D2"/>
    <path d="M19.9799 41.1709H16.9679V45.0493H19.9799V41.1709Z" fill="#81B3D2"/>
    <path d="M25.9036 41.1709H22.8915V45.0493H25.9036V41.1709Z" fill="#81B3D2"/>
    <path d="M19.9799 47.1387H16.9679V51.0171H19.9799V47.1387Z" fill="#81B3D2"/>
    <path d="M25.9036 47.1387H22.8915V51.0171H25.9036V47.1387Z" fill="#81B3D2"/>
    <path d="M52.008 41.1709H48.996V45.0493H52.008V41.1709Z" fill="#81B3D2"/>
    <path d="M58.0321 41.1709H55.0201V45.0493H58.0321V41.1709Z" fill="#81B3D2"/>
    <path d="M52.008 47.1387H48.996V51.0171H52.008V47.1387Z" fill="#81B3D2"/>
    <path d="M58.0321 47.1387H55.0201V51.0171H58.0321V47.1387Z" fill="#81B3D2"/>
  </symbol>

  <symbol id="gift-icon" viewBox="0 0 64 75" fill="none" xmlns="http://www.w3.org/2000/svg">
    <path d="M61.1556 22.1167H61.054H36.3683C50.1841 15.3189 51.3016 11.0202 50.7937 8.62098C49.6762 4.72221 45.1048 1.72316 40.8381 3.32266C35.2508 5.42199 33.727 13.6194 32.2032 19.5175C30.273 13.5194 28.4444 5.92183 24.0762 2.02307C22.8571 0.923414 21.0286 -0.176239 18.2857 0.0236982C14.2222 0.423572 8.43175 5.32202 10.8698 10.8203C13.1048 16.1186 20.5206 19.5175 25.4984 22.2167H2.84444C1.21905 22.2167 0 23.5163 0 25.0158V36.2123C0 37.8118 1.32063 39.0114 2.84444 39.0114H3.14921V75H61.054V39.0114H61.1556C62.781 39.0114 64 37.7118 64 36.2123V25.0158C64 23.4163 62.6794 22.1167 61.1556 22.1167ZM42.4635 5.82187C44.5968 5.52196 47.4413 7.12146 47.746 9.02085C48.1524 11.72 44.3937 14.2192 42.6667 15.3189C40.127 17.0183 37.6889 17.918 35.3524 19.3176C36.1651 15.6188 37.8921 6.42168 42.4635 5.82187ZM19.5048 15.6188C17.2698 14.1192 13.0032 11.2202 13.1048 7.9212C13.2063 4.32234 18.8952 1.42326 21.9429 4.1224C25.8032 7.42136 27.6317 15.1189 29.054 20.5172C25.8032 18.9177 22.7556 17.7181 19.5048 15.6188ZM25.4984 72.0009H6.09524V39.0114H25.4984V72.0009ZM25.4984 36.0123H3.04762V25.1158H25.4984V36.0123ZM35.6571 72.0009H28.4444V25.1158H35.6571V72.0009ZM58.0064 72.0009H38.7048V39.0114H58.1079V72.0009H58.0064ZM60.9524 36.0123H38.7048V25.1158H60.9524V36.0123Z" fill="#81B3D2"/>
  </symbol>

  <symbol id="burger-icon" viewBox="0 0 76 68" fill="none" xmlns="http://www.w3.org/2000/svg">
    <path d="M71.7113 45.3324H4.28871C1.89501 45.3324 0 47.3034 0 49.57V53.0192C0 55.2858 1.89501 57.1582 4.28871 57.1582H5.28609V58.1437C5.28609 63.5639 9.77428 67.9 15.1601 67.9H60.8399C66.3255 67.9 70.7139 63.4653 70.7139 58.1437V57.1582H71.7113C74.0053 57.1582 76 55.2858 76 52.9206V49.4714C76 47.3034 74.105 45.3324 71.7113 45.3324ZM67.8215 58.1437C67.8215 61.8886 64.7297 64.9436 60.9396 64.9436H15.0604C11.2703 64.9436 8.17848 61.8886 8.17848 58.1437V57.1582H67.8215V58.1437ZM73.0079 52.9206C73.0079 53.6105 72.4095 54.2018 71.7113 54.2018H4.28871C3.59055 54.2018 2.99213 53.6105 2.99213 52.9206V49.4714C2.99213 48.8801 3.59055 48.2889 4.28871 48.2889H71.811C72.5092 48.2889 73.1076 48.8801 73.1076 49.57V52.9206H73.0079Z" fill="#81B3D2"/>
    <path d="M16.1575 37.3496L21.5434 41.2915L27.0289 37.3496L32.5145 41.2915L38 37.3496L43.3859 41.2915L48.8714 37.3496L54.357 41.2915L59.8426 37.3496L65.3281 41.2915L71.6116 36.6597L69.9161 34.2946L65.3281 37.5467L59.8426 33.6047L54.357 37.5467L48.8714 33.6047L43.3859 37.5467L38 33.6047L32.5145 37.5467L27.0289 33.6047L21.5434 37.5467L16.1575 33.6047L10.672 37.5467L6.08403 34.2946L4.28876 36.6597L10.672 41.2915L16.1575 37.3496Z" fill="#81B3D2"/>
    <path d="M70.7138 30.6486C70.7138 30.0573 70.8136 28.0864 70.7138 27.6922C70.0157 12.3186 55.6535 0 37.9999 0C20.3464 0 5.88444 12.3186 5.18628 27.6922C5.18628 28.0864 5.18628 30.0573 5.18628 30.6486H70.7138ZM37.9999 2.95646C53.9579 2.95646 67.1233 13.9939 67.7217 27.6922H8.17841C8.87657 13.9939 22.0419 2.95646 37.9999 2.95646Z" fill="#81B3D2"/>
    <path d="M38 16.7532C39.1017 16.7532 39.9948 15.8708 39.9948 14.7823C39.9948 13.6937 39.1017 12.8113 38 12.8113C36.8983 12.8113 36.0052 13.6937 36.0052 14.7823C36.0052 15.8708 36.8983 16.7532 38 16.7532Z" fill="#81B3D2"/>
    <path d="M30.021 11.924C31.1227 11.924 32.0157 11.0416 32.0157 9.95303C32.0157 8.86449 31.1227 7.98206 30.021 7.98206C28.9193 7.98206 28.0262 8.86449 28.0262 9.95303C28.0262 11.0416 28.9193 11.924 30.021 11.924Z" fill="#81B3D2"/>
    <path d="M45.979 11.924C47.0807 11.924 47.9738 11.0416 47.9738 9.95303C47.9738 8.86449 47.0807 7.98206 45.979 7.98206C44.8773 7.98206 43.9843 8.86449 43.9843 9.95303C43.9843 11.0416 44.8773 11.924 45.979 11.924Z" fill="#81B3D2"/>
  </symbol>

  <symbol id="twitter-icon" viewBox="0 0 46 48" fill="none" xmlns="http://www.w3.org/2000/svg">
    <rect width="46" height="48" fill="#81B3D2"/>
    <path d="M25.3 16.1667C27 15.6667 28.4 16.3667 29 17.2667C29.7 17.0667 30.4 16.7667 31.1 16.5667C31.1 17.3667 30.6 18.0667 30.2 18.2667C30.9 18.4667 31.5 17.7667 31.5 17.7667C31.3 18.7667 30.5 19.4667 29.9 19.7667C29.7 26.3667 26.6 30.7667 19.5 30.5667C19 30.5667 19.6 30.5667 19 30.5667C18.6 30.5667 14.7 30.1667 14 28.7667C16.3 28.9667 18 28.3667 18.8 27.6667C17.8 27.3667 16 27.1667 15.7 24.7667C16.1 24.8667 16.3 24.9667 17 24.8667C15.8 24.0667 14.4 23.3667 14.5 21.1667C14.8 21.4667 15.6 21.6667 15.9 21.6667C15.2 21.4667 13.9 18.3667 15 16.8667C16.9 18.6667 18.8 20.3667 22.4 20.5667C22.5 18.2667 23.5 16.7667 25.3 16.1667Z" fill="white"/>
  </symbol>

  <symbol id="facebook-icon" viewBox="0 0 47 48" fill="none" xmlns="http://www.w3.org/2000/svg">
    <rect width="47" height="48" fill="#81B3D2"/>
    <path d="M25.3 16.4C26.1 16.4 26.9 16.4 27.7 16.4C27.7 15.3 27.7 14.2 27.7 13C26.7 13 25.8 13 24.8 13C21.7 13.2 20.5 15.4 20.9 19.1H19V22.6H21C21 25.7 21 28.8 21 31.9C22.3 31.9 23.6 31.9 24.8 31.9C24.8 28.8 24.8 25.7 24.8 22.6H27.7V19.1H24.8C24.8 18.1 24.8 16.7 25.3 16.4Z" fill="white"/>
  </symbol>

  <symbol id="youtube-icon" viewBox="0 0 46 48" fill="none" xmlns="http://www.w3.org/2000/svg">
    <rect width="46" height="48" fill="#81B3D2"/>
    <path d="M30.1 17H15.8C14.3 17 13 18.3 13 19.8V28.1C13 29.7 14.3 31 15.8 31H30.1C31.7 31 32.9 29.7 32.9 28.2V19.8C33 18.3 31.7 17 30.1 17ZM20 27.4V20.6L26.8 24L20 27.4Z" fill="white"/>
  </symbol>

  <symbol id="htmlacademy-icon" viewBox="0 0 27 35" fill="none" xmlns="http://www.w3.org/2000/svg">
    <path d="M13.6 0H13.5L0 1.4V26.1L13.5 34.1L26.9 26.1V1.4L13.6 0ZM25 12.1L13.5 5.3V5.2H13.4L13.3 5.1V5.2L1.9 12.1V3.1L13.4 1.9L25 3.1V12.1ZM13.4 6.8L24.9 13.5L20.4 16.1L13.3 11.9V13.3L19.2 16.8L18.3 17.3L13.3 14.3V15.7L17.1 18L16.3 18.5L13.3 16.7V18.1L15.2 19.2L13.4 20.3L2 13.6L13.4 6.8ZM1.9 15.1L13.3 21.9V22.9L5.4 18.2V19.6L13.4 24.4V25.5L5.4 20.8V22.2L13.4 27L21.5 22.1V16.9L24.9 14.9V24.9L13.4 31.8L1.9 25V15.1Z" fill="black"/>
  </symbol>

  <symbol id="phone-icon" viewBox="0 0 58 58" fill="none" xmlns="http://www.w3.org/2000/svg">
    <rect width="58" height="58" fill="#E6E6E6"/>
    <path d="M24.6 27.8C26 30.6 28.4 32.9 31.2 34.4L33.4 32.2C33.7 31.9 34.1 31.8 34.4 32C35.5 32.4 36.7 32.6 38 32.6C38.6 32.6 39 33 39 33.6V37C39 37.6 38.6 38 38 38C28.6 38 21 30.4 21 21C21 20.4 21.4 20 22 20H25.5C26.1 20 26.5 20.4 26.5 21C26.5 22.2 26.7 23.4 27.1 24.6C27.2 24.9 27.1 25.3 26.9 25.6L24.6 27.8Z" fill="#010101"/>
  </symbol>

  <symbol id="email-icon" viewBox="0 0 58 58" fill="none" xmlns="http://www.w3.org/2000/svg">
    <rect width="58" height="58" fill="#E6E6E6"/>
    <path d="M29 31C28.7 31 28.5 30.9 28 30.7L21 27V34C21 34.5 21.5 35 22 35H36C36.5 35 37 34.5 37 34V27L30 30.7C29.5 30.9 29.3 31 29 31ZM36 23H22C21.5 23 21 23.5 21 24V24.8L29 29L37 24.8V24C37 23.5 36.5 23 36 23Z" fill="black"/>
  </symbol>

  <symbol id="check-icon" viewBox="0 0 24 17" fill="none" xmlns="http://www.w3.org/2000/svg">
    <path d="M22.925 1.325L21.825 0.225C21.525 -0.075 20.925 -0.075 20.625 0.225L8.725 12.125L2.525 5.925C2.225 5.625 1.625 5.625 1.325 5.925L0.225 7.025C-0.075 7.325 -0.075 7.925 0.225 8.225L8.025 16.025C8.225 16.225 8.425 16.225 8.625 16.225C8.825 16.225 9.025 16.125 9.225 16.025L22.725 2.525C23.225 2.225 23.225 1.725 22.925 1.325Z" fill="black"/>
  </symbol>
</svg>
